<svg xmlns="http://www.w3.org/2000/svg" xmlns:xlink="http://www.w3.org/1999/xlink" width="18" height="18" viewBox="0 0 18 18"><defs><path id="3wzza" d="M803.737 5855.263c.384.384.622.75.821 1.262.15.387.33.969.378 2.039.053 1.158.064 1.505.064 4.436s-.011 3.278-.064 4.436c-.049 1.07-.228 1.652-.378 2.039-.2.512-.437.878-.821 1.262a3.4 3.4 0 0 1-1.262.821c-.387.15-.969.33-2.039.378-1.157.053-1.505.064-4.436.064s-3.279-.011-4.436-.064c-1.07-.049-1.652-.228-2.039-.378a3.4 3.4 0 0 1-1.262-.821 3.402 3.402 0 0 1-.821-1.262c-.15-.387-.33-.969-.378-2.039-.053-1.158-.064-1.505-.064-4.436s.011-3.278.064-4.436c.049-1.07.228-1.652.378-2.039.2-.512.437-.878.821-1.262a3.4 3.4 0 0 1 1.262-.821c.387-.15.969-.33 2.039-.378 1.158-.053 1.505-.064 4.436-.064s3.278.011 4.436.064c1.07.049 1.652.228 2.039.378a3.4 3.4 0 0 1 1.262.821m-7.745 12.595c2.71 0 4.907-2.19 4.907-4.89 0-2.702-2.197-4.892-4.907-4.892s-4.907 2.19-4.907 4.891c0 2.702 2.197 4.891 4.907 4.891m5.091-8.832c.633 0 1.146-.512 1.146-1.143 0-.632-.513-1.144-1.146-1.144a1.144 1.144 0 0 0 0 2.286m-5.091.767a3.181 3.181 0 0 1 3.187 3.175 3.181 3.181 0 0 1-3.187 3.175 3.181 3.181 0 0 1-3.187-3.175 3.181 3.181 0 0 1 3.187-3.175"/></defs><g><g transform="translate(-787 -5854)"><use xlink:href="#3wzza"/></g></g></svg>