<svg xmlns="http://www.w3.org/2000/svg" xmlns:xlink="http://www.w3.org/1999/xlink" width="12" height="18" viewBox="0 0 12 18"><defs><path id="rnjba" d="M885.272 5857.962c.373 1.31-.61 2.404-1.667 2.668-3 .751-4.285-3.445-1.205-4.247a2.343 2.343 0 0 1 2.872 1.579zm1.05 5.62c-1.965 1.082-4.573 1.103-6.562.048-.378-.202-.82-.578-1.311-.624-1.366-.126-3.065 1.976 1.703 3.395.432.128 1.342.244 1.638.39l-3.27 2.99c-1.231 1.105-.222 2.384.989 2.202.916-.138 2.587-2.384 3.533-2.824.421.47 2.743 2.756 3.482 2.833 1.165.12 2.131-1.075.996-2.125-.683-.632-3.084-2.684-3.31-3.097 1.31-.37 1.387-.15 3.06-.93 3.048-1.427 1.316-2.794.459-2.838-.637-.031-.987.35-1.408.58zm1.353-6.036c-.517-2.096-2.888-4.147-5.79-3.383-6.333 1.67-3.772 9.96 2.163 8.71 2.236-.47 4.286-2.639 3.627-5.327z"/></defs><g><g transform="translate(-877 -5854)"><use xlink:href="#rnjba"/></g></g></svg>