<svg xmlns="http://www.w3.org/2000/svg" xmlns:xlink="http://www.w3.org/1999/xlink" width="20" height="16" viewBox="0 0 20 16"><defs><path id="eka2a" d="M921.79 5855.007c1.923-.092 3.73.767 5.203 1.974a28.28 28.28 0 0 1-1.975 2.101c-1.77-1.257-4.288-1.615-6.058-.164-2.533 1.799-2.648 6.046-.212 7.983 2.369 2.207 6.847 1.11 7.501-2.27-1.484-.023-2.971 0-4.455-.049-.004-.91-.008-1.818-.004-2.727 2.25-.007 4.501-.011 6.755.003v-1.137c.604-.006 1.207-.01 1.812-.013.004-.635.01-1.266.016-1.898h1.803c.003.632.006 1.266.012 1.898.603.007 1.21.007 1.812.013v1.888c-.603.007-1.206.01-1.812.017-.006.634-.01 1.266-.012 1.898h-1.806c-.006-.632-.006-1.264-.013-1.895l-1.087-.012c.037 1.91-.31 3.868-1.44 5.43-1.937 2.8-5.828 3.617-8.863 2.417-3.046-1.191-5.203-4.496-4.946-7.864.067-4.122 3.756-7.731 7.769-7.593z"/></defs><g><g transform="translate(-914 -5855)"><use xlink:href="#eka2a"/></g></g></svg>