<svg xmlns="http://www.w3.org/2000/svg" xmlns:xlink="http://www.w3.org/1999/xlink" width="22" height="12" viewBox="0 0 22 12"><defs><path id="e85pa" d="M840.764 5868.95h1.315s.397-.042.6-.25c.187-.193.18-.553.18-.553s-.025-1.687.794-1.936c.807-.245 1.844 1.63 2.942 2.352.832.545 1.463.426 1.463.426l2.938-.04s1.537-.09.808-1.245c-.06-.094-.425-.855-2.184-2.417-1.843-1.635-1.596-1.37.623-4.198 1.351-1.722 1.892-2.774 1.722-3.224-.16-.43-1.154-.316-1.154-.316l-3.308.02s-.246-.032-.427.072c-.178.102-.292.34-.292.34s-.524 1.332-1.222 2.465c-1.473 2.392-2.062 2.518-2.303 2.37-.56-.347-.42-1.39-.42-2.132 0-2.318.368-3.285-.716-3.535-.36-.082-.624-.137-1.544-.146-1.18-.012-2.179.003-2.744.268-.377.176-.668.569-.49.591.218.028.713.128.976.47.339.44.327 1.43.327 1.43s.195 2.729-.455 3.068c-.446.232-1.057-.242-2.371-2.412-.673-1.111-1.18-2.34-1.18-2.34s-.099-.23-.273-.353c-.212-.148-.508-.196-.508-.196l-3.144.02s-.472.013-.645.21c-.154.174-.012.535-.012.535s2.46 5.505 5.247 8.279c2.556 2.544 5.457 2.377 5.457 2.377"/></defs><g><g transform="translate(-830 -5857)"><use xlink:href="#e85pa"/></g></g></svg>