<svg xmlns="http://www.w3.org/2000/svg" width="54" height="54" viewBox="0 0 54 54"><g><g><g><path fill="#eeb621" d="M41.816 36.58h-1.751v-3.527c.29.019.58.044.876.044.296 0 .585-.025.876-.044zm1.732 13.065a2.616 2.616 0 0 1-2.613 2.613 2.616 2.616 0 0 1-2.612-2.613V38.323h5.225zm-6.967-13.064v8.71H1.74V1.74h38.324v5.271c-6.799.451-12.194 6.11-12.194 13.02 0 6.31 4.496 11.588 10.452 12.802v3.747zm15.677-16.554c0 6.24-5.08 11.318-11.323 11.318s-11.322-5.077-11.322-11.318c0-6.24 5.08-11.317 11.322-11.317 6.244 0 11.323 5.077 11.323 11.317zm1.742.005c0-6.91-5.395-12.569-12.194-13.02V0H0v47.032h36.58v2.613A4.36 4.36 0 0 0 40.936 54a4.36 4.36 0 0 0 4.355-4.355V36.581h-1.742v-3.747C49.504 31.62 54 26.342 54 20.032z"/></g><g><path fill="#eeb621" d="M48.768 20.03c0 4.323-3.516 7.84-7.837 7.84-4.322 0-7.838-3.517-7.838-7.84 0-4.322 3.516-7.838 7.838-7.838 4.32 0 7.837 3.516 7.837 7.839zm-17.418 0c0 5.283 4.298 9.581 9.58 9.581 5.283 0 9.581-4.298 9.581-9.58 0-5.283-4.298-9.581-9.58-9.581-5.283 0-9.581 4.298-9.581 9.58z"/></g><g><path fill="#eeb621" d="M41.802 49.64a.871.871 0 1 1-1.742 0 .871.871 0 0 1 1.742 0z"/></g><g><path fill="#eeb621" d="M37.937 21.922l-.967 1.45 3.435 2.288 4.796-9.592-1.56-.778-3.913 7.827z"/></g><g><path fill="#eeb621" d="M15.674 33.1v8.71H5.222V33.1h6.823l-1.9 4.561-1.693-1.693L7.22 37.2l3.533 3.532 3.179-7.632zm-.068-4.02L14 28.41l-1.228 2.948H3.48v12.194h13.935V31.358h-2.758z"/></g><g><path fill="#eeb621" d="M15.674 16.55v8.71H5.222v-8.71h6.823l-1.9 4.561-1.693-1.693L7.22 20.65l3.533 3.532 3.179-7.632zm-.068-4.02L14 11.86l-1.228 2.948H3.48v12.194h13.935V14.808h-2.758z"/></g><g><path fill="#eeb621" d="M24.39 6.97h1.742v1.742H24.39z"/></g><g><path fill="#eeb621" d="M3.48 6.97h19.161v1.742H3.48z"/></g><g><path fill="#eeb621" d="M19.16 31.35h10.452v1.742H19.16z"/></g><g><path fill="#eeb621" d="M19.16 34.84h10.452v1.742H19.16z"/></g><g><path fill="#eeb621" d="M19.16 38.32h10.452v1.742H19.16z"/></g><g><path fill="#eeb621" d="M19.16 41.81h10.452v1.742H19.16z"/></g><g><path fill="#eeb621" d="M19.16 14.81h6.968v1.742H19.16z"/></g><g><path fill="#eeb621" d="M19.16 18.29h6.968v1.742H19.16z"/></g><g><path fill="#eeb621" d="M19.16 21.77h6.968v1.742H19.16z"/></g><g><path fill="#eeb621" d="M19.16 25.26h6.968v1.742H19.16z"/></g><g><path fill="#eeb621" d="M3.48 3.48h22.645v1.742H3.48z"/></g></g></g></svg>