<svg xmlns="http://www.w3.org/2000/svg" width="51" height="54" viewBox="0 0 51 54"><g><g><g><path fill="#eeb621" d="M33.861 28.158l-2.033-1.162 2.033-1.162zm1.594-5.068l-6.815 3.906 6.815 3.905z"/></g><g><path fill="#eeb621" d="M22.262 34.812l-2.034-1.166 2.034-1.166zm1.593 2.74V29.74l-6.815 3.906z"/></g><g><path fill="#eeb621" d="M49.524 30.433l-7.998 2.127-2.355-1.35v-8.42l2.355-1.35 7.998 2.127 1.375-5.093-2.867-.763 2.567-1.47-3.187-5.481-2.567 1.471.768-2.846-5.131-1.364-2.144 7.939-2.354 1.35-7.347-4.211v-2.7l5.855-5.811L30.735.859l-2.098 2.083V0h-6.375v2.942L20.163.859l-3.756 3.729 5.855 5.812v2.697l-7.348 4.211-2.353-1.348-2.144-7.94-5.131 1.365.768 2.846-2.567-1.471L.3 16.24l2.567 1.471L0 18.474l1.375 5.093 7.998-2.127 2.354 1.349v3.195h1.593v-4.109l-3.722-2.133-7.096 1.888-.55-2.038 5.043-1.341-4.518-2.59 1.594-2.74 4.518 2.59-1.351-5.007 2.053-.546 1.9 7.044 3.723 2.134 8.942-5.125V9.744L18.66 4.588l1.502-1.492 3.693 3.665V1.582h3.187v5.18l3.692-3.666 1.503 1.492-5.195 5.156v4.268l8.94 5.124 3.724-2.134 1.902-7.044 2.052.546-1.351 5.006 4.518-2.589 1.594 2.74-4.518 2.59 5.043 1.341-.55 2.038-7.096-1.888-3.724 2.135v10.246l3.724 2.135 7.096-1.888.55 2.038-5.043 1.341 4.518 2.59-1.594 2.74-4.518-2.59 1.351 5.007-2.052.546-1.902-7.044-3.724-2.134-8.94 5.123v4.269l5.195 5.156-1.503 1.492-3.692-3.665v5.179h-3.187v-5.18l-3.693 3.666-1.502-1.492 5.195-5.156v-4.268l-8.94-5.124-3.724 2.134-1.901 7.044-2.053-.546 1.351-5.007-4.518 2.59-1.594-2.74 4.518-2.59-5.043-1.341.55-2.038 7.096 1.888 3.722-2.133v-4.031h-1.593v3.117l-2.354 1.35-7.998-2.128L0 35.526l2.867.763L.3 37.759l3.187 5.481 2.567-1.471-.768 2.846 5.131 1.364 2.144-7.939 2.354-1.35 7.347 4.211v2.7l-5.855 5.811 3.756 3.729 2.099-2.083V54h6.375v-2.942l2.098 2.083 3.757-3.729-5.855-5.812v-2.7l7.346-4.21 2.355 1.35 2.144 7.94 5.131-1.365-.768-2.846 2.567 1.471 3.187-5.48-2.567-1.471 2.867-.763z"/></g><g><path fill="#eeb621" d="M28.636 32.48l2.037 1.166-2.037 1.165zm-1.596 5.071l6.815-3.905-6.815-3.906z"/></g><g><path fill="#eeb621" d="M28.634 19.19l2.044 1.166-2.044 1.166zm-1.594 5.072l6.816-3.906-6.816-3.906z"/></g><g><path fill="#eeb621" d="M22.253 21.523l-2.025-1.166 2.025-1.167zm1.604-5.073l-6.817 3.907 6.817 3.906z"/></g><g><path fill="#eeb621" d="M17.041 25.834l2.043 1.162-2.043 1.163zm-1.591 5.069l6.817-3.907-6.817-3.906z"/></g><g><path fill="#eeb621" d="M34.566 10.123c.21 0 .417.054.604.16a1.197 1.197 0 0 1-.292 2.2c-.313.083-.64.04-.92-.12a1.195 1.195 0 0 1 .292-2.199c.104-.027.21-.041.316-.041zm-2.71 1.921a2.768 2.768 0 0 0 1.307 1.69 2.805 2.805 0 0 0 2.127.277 2.78 2.78 0 0 0 1.702-1.297 2.745 2.745 0 0 0 .28-2.111 2.768 2.768 0 0 0-1.307-1.69 2.804 2.804 0 0 0-2.127-.277 2.782 2.782 0 0 0-1.981 3.408z"/></g><g><path fill="#eeb621" d="M44.54 27.828a1.212 1.212 0 0 1-.856.352c-.324 0-.629-.125-.857-.35a1.183 1.183 0 0 1-.002-1.694 1.21 1.21 0 0 1 .857-.351h.001c.323 0 .628.124.857.35.229.226.355.527.355.846 0 .32-.126.62-.354.847zm1.124-2.815a2.796 2.796 0 0 0-1.98-.813h-.003c-.749 0-1.453.29-1.981.816a2.754 2.754 0 0 0-.82 1.968c0 .743.293 1.442.823 1.967.529.525 1.232.814 1.98.814h.002a2.797 2.797 0 0 0 2.8-2.785c0-.743-.292-1.441-.821-1.967z"/></g><g><path fill="#eeb621" d="M35.19 43.703c-.28.161-.605.204-.917.122a1.2 1.2 0 0 1-.857-1.473 1.209 1.209 0 0 1 1.166-.893c.417 0 .825.215 1.049.6.162.278.205.602.121.913-.083.31-.283.57-.562.731zm-3.314-1.758a2.783 2.783 0 0 0 1.986 3.405 2.805 2.805 0 0 0 2.127-.28 2.767 2.767 0 0 0 1.304-1.692 2.746 2.746 0 0 0-.283-2.11 2.818 2.818 0 0 0-3.83-1.014 2.766 2.766 0 0 0-1.304 1.691z"/></g><g><path fill="#eeb621" d="M17.412 43.279a1.214 1.214 0 0 1-2.215-.285 1.179 1.179 0 0 1 .119-.91 1.217 1.217 0 0 1 1.651-.44 1.191 1.191 0 0 1 .445 1.635zm1.382.79a2.746 2.746 0 0 0 .276-2.112 2.767 2.767 0 0 0-1.309-1.687 2.818 2.818 0 0 0-3.827 1.025 2.746 2.746 0 0 0-.276 2.111c.195.718.66 1.317 1.309 1.688.44.25.919.37 1.392.37.972 0 1.917-.501 2.435-1.395z"/></g><g><path fill="#eeb621" d="M6.01 27.045a1.208 1.208 0 0 1 1.21-1.203h.003c.667 0 1.21.537 1.212 1.198a1.208 1.208 0 0 1-1.21 1.203h-.002a1.208 1.208 0 0 1-1.212-1.198zm1.219 2.78c1.546-.004 2.8-1.254 2.797-2.789-.003-1.532-1.26-2.776-2.803-2.776h-.006a2.795 2.795 0 0 0-1.98.82 2.754 2.754 0 0 0-.817 1.968 2.796 2.796 0 0 0 2.803 2.776z"/></g><g><path fill="#eeb621" d="M15.125 11.044a1.209 1.209 0 0 1 1.167-.893c.417 0 .823.215 1.048.598a1.197 1.197 0 0 1-.439 1.64 1.21 1.21 0 0 1-1.652-.434 1.184 1.184 0 0 1-.124-.91zm.451 2.997a2.8 2.8 0 0 0 2.126-.284 2.775 2.775 0 0 0 1.016-3.803 2.817 2.817 0 0 0-3.832-1.008 2.766 2.766 0 0 0-1.301 1.693 2.783 2.783 0 0 0 1.991 3.403z"/></g><g><path fill="#eeb621" d="M46.08 16.095l-.797-1.375-1.38.794.796 1.374zm-2.301 1.316l-.797-1.374-1.38.794.797 1.374zm-2.3 1.313l-.797-1.37-7.712 4.421.797 1.371z"/></g><g><path fill="#eeb621" d="M34.947 31.554l-1.38-.794-.797 1.375 1.38.794zm2.3 1.317l-1.38-.794-.797 1.375 1.38.794zm8.632 4.945l-7.711-4.422-.797 1.37 7.712 4.423z"/></g></g></g></svg>