<svg xmlns="http://www.w3.org/2000/svg" width="43" height="54" viewBox="0 0 43 54"><g><g><g><path fill="#eeb621" d="M34.942 22.5H12.546a.898.898 0 0 0-.896.9c0 .498.401.9.896.9h22.396a.898.898 0 0 0 .896-.9c0-.498-.402-.9-.896-.9z"/></g><g><path fill="#eeb621" d="M12.546 17.1h8.958a.898.898 0 0 0 .896-.9c0-.498-.401-.9-.896-.9h-8.958a.898.898 0 0 0-.896.9c0 .498.401.9.896.9z"/></g><g><path fill="#eeb621" d="M34.942 29.7H12.546a.898.898 0 0 0-.896.9c0 .498.401.9.896.9h22.396a.898.898 0 0 0 .896-.9c0-.498-.402-.9-.896-.9z"/></g><g><path fill="#eeb621" d="M34.942 36.9H12.546a.898.898 0 0 0-.896.9c0 .498.401.9.896.9h22.396a.898.898 0 0 0 .896-.9c0-.498-.402-.9-.896-.9z"/></g><g><path fill="#eeb621" d="M34.942 44.1H12.546a.898.898 0 0 0-.896.9c0 .498.401.9.896.9h22.396a.898.898 0 0 0 .896-.9c0-.498-.402-.9-.896-.9z"/></g><g><path fill="#eeb621" d="M6.27 52.2V6.3h22.397v12.6h12.541v33.3zm-4.478-4.5V1.8h34.937v9.527L29.933 4.5H4.48v43.2zM30.458 7.573l8.063 8.1 1.42 1.427h-9.483zm8.063 5.554V0H0v49.5h4.48V54H43V17.627z"/></g></g></g></svg>