<svg xmlns="http://www.w3.org/2000/svg" width="54" height="54" viewBox="0 0 54 54"><g><g><g><path fill="#eeb621" d="M52.2 28.8a.9.9 0 0 1-.9.9H2.7a.9.9 0 0 1-.9-.9V27a.9.9 0 0 1 .9-.9h48.6a.9.9 0 0 1 .9.9zM18.897 4.222V19.8a.9.9 0 1 0 1.8 0V2.7a.9.9 0 0 1 .9-.9h4.498v19.8a.9.9 0 1 0 1.8 0V1.8h4.499a.9.9 0 0 1 .9.9v17.1a.9.9 0 1 0 1.8 0V4.222A22.392 22.392 0 0 1 49.453 24.3H4.536a22.392 22.392 0 0 1 14.36-20.078zM51.3 24.3h-.036A24.185 24.185 0 0 0 35.059 2.291 2.7 2.7 0 0 0 32.4 0H21.6a2.7 2.7 0 0 0-2.659 2.291A24.185 24.185 0 0 0 2.736 24.3H2.7A2.7 2.7 0 0 0 0 27v1.8a2.7 2.7 0 0 0 2.7 2.7h48.6a2.7 2.7 0 0 0 2.7-2.7V27a2.7 2.7 0 0 0-2.7-2.7z"/></g><g><path fill="#eeb621" d="M22.5 39.6H10.8a2.7 2.7 0 0 0-2.7 2.7v3.6a.9.9 0 0 0 1.8 0v-3.6a.9.9 0 0 1 .9-.9h11.7a.9.9 0 0 0 0-1.8z"/></g><g><path fill="#eeb621" d="M52.2 42.3h-2.7v-.9h2.7zm0 4.5h-2.7v-2.7h2.7zm-4.5.9a4.505 4.505 0 0 1-4.5 4.5h-5.4a9.957 9.957 0 0 1-8.507-4.83 2.682 2.682 0 0 0-4.59 0A9.958 9.958 0 0 1 16.2 52.2h-5.4a4.505 4.505 0 0 1-4.5-4.5v-7.2A2.7 2.7 0 0 1 9 37.8h36a2.7 2.7 0 0 1 2.7 2.7zM4.5 43.2H1.8v-.9h2.7zm0 4.5H1.8V45h2.7zm48.6-8.1h-3.69A4.508 4.508 0 0 0 45 36H9a4.505 4.505 0 0 0-4.5 4.5H.9a.9.9 0 0 0-.9.9v7.2a.9.9 0 0 0 .9.9h3.87A6.308 6.308 0 0 0 10.8 54h5.4a11.764 11.764 0 0 0 10.051-5.707.883.883 0 0 1 1.498 0A11.764 11.764 0 0 0 37.8 54h5.4a6.3 6.3 0 0 0 6.228-5.4H53.1a.9.9 0 0 0 .9-.9v-7.2a.9.9 0 0 0-.9-.9z"/></g><g><path fill="#eeb621" d="M27.9 39.6h-1.8a.9.9 0 0 0 0 1.8h1.8a.9.9 0 0 0 0-1.8z"/></g></g></g></svg>