<svg xmlns="http://www.w3.org/2000/svg" width="40" height="40" viewBox="0 0 40 40"><g><g><g><path fill="#507299" d="M0 20C0 8.954 8.954 0 20 0s20 8.954 20 20-8.954 20-20 20S0 31.046 0 20z"/></g><g><path fill="#507299" d="M19.743 25.945h1.434s.433-.045.654-.27c.205-.21.198-.6.198-.6s-.028-1.827.865-2.096c.88-.266 2.012 1.766 3.21 2.547.907.592 1.596.462 1.596.462l3.205-.043s1.676-.098.881-1.349c-.065-.102-.463-.926-2.383-2.618-2.01-1.771-1.74-1.485.68-4.549 1.474-1.865 2.064-3.004 1.88-3.492-.176-.465-1.26-.342-1.26-.342l-3.61.021s-.267-.034-.465.078c-.193.11-.318.368-.318.368s-.572 1.443-1.333 2.671c-1.607 2.591-2.25 2.728-2.513 2.567-.61-.375-.458-1.505-.458-2.31 0-2.51.402-3.557-.78-3.828-.393-.09-.682-.15-1.685-.159-1.287-.013-2.377.003-2.994.29-.411.191-.728.617-.535.641.238.03.779.138 1.065.508.37.478.357 1.551.357 1.551s.213 2.955-.496 3.323c-.487.251-1.154-.262-2.587-2.613-.734-1.204-1.288-2.535-1.288-2.535s-.107-.248-.297-.382c-.232-.161-.555-.212-.555-.212l-3.429.021s-.514.014-.703.226c-.169.19-.014.58-.014.58s2.685 5.964 5.724 8.97c2.788 2.755 5.954 2.574 5.954 2.574"/></g><g><path fill="#fff" d="M18.764 26.95h1.315s.397-.042.6-.25c.187-.193.18-.553.18-.553s-.025-1.687.794-1.936c.807-.245 1.844 1.63 2.942 2.352.832.545 1.463.426 1.463.426l2.938-.04s1.537-.09.808-1.245c-.06-.094-.425-.855-2.184-2.417-1.843-1.635-1.596-1.37.623-4.198 1.351-1.722 1.892-2.774 1.722-3.224-.16-.43-1.154-.316-1.154-.316l-3.308.02s-.246-.032-.427.072c-.178.102-.292.34-.292.34s-.524 1.332-1.222 2.465c-1.473 2.392-2.062 2.518-2.303 2.37-.56-.347-.42-1.39-.42-2.132 0-2.318.368-3.285-.716-3.535-.36-.082-.624-.137-1.544-.146-1.18-.012-2.179.003-2.744.268-.377.176-.668.569-.49.591.218.028.713.128.976.47.339.44.327 1.43.327 1.43s.195 2.729-.455 3.068c-.446.232-1.057-.242-2.371-2.412-.673-1.111-1.18-2.34-1.18-2.34s-.099-.23-.273-.353c-.212-.148-.508-.196-.508-.196l-3.144.02s-.472.013-.645.21c-.154.174-.012.535-.012.535s2.46 5.505 5.247 8.279c2.556 2.544 5.457 2.377 5.457 2.377"/></g></g></g></svg>