<svg xmlns="http://www.w3.org/2000/svg" width="40" height="40" viewBox="0 0 40 40"><g><g><g><path fill="#db4437" d="M0 20C0 8.954 8.954 0 20 0s20 8.954 20 20-8.954 20-20 20S0 31.046 0 20z"/></g><g><path fill="#fff" d="M18.79 12.007c1.923-.093 3.73.767 5.203 1.974a28.28 28.28 0 0 1-1.975 2.101c-1.77-1.257-4.288-1.615-6.058-.164-2.533 1.799-2.648 6.046-.212 7.983 2.369 2.207 6.847 1.11 7.501-2.27-1.484-.023-2.971 0-4.455-.049-.004-.91-.008-1.818-.004-2.727 2.25-.007 4.501-.011 6.755.003V17.72c.604-.006 1.207-.01 1.812-.013.004-.635.01-1.266.016-1.898h1.803c.003.632.006 1.266.012 1.898.603.007 1.21.007 1.812.013v1.888c-.603.007-1.206.01-1.812.017-.006.634-.01 1.266-.012 1.898H27.37c-.006-.632-.006-1.264-.013-1.895l-1.087-.012c.037 1.91-.31 3.868-1.44 5.43-1.937 2.8-5.828 3.617-8.863 2.417-3.046-1.191-5.203-4.496-4.946-7.864.067-4.122 3.756-7.731 7.769-7.593z"/></g></g></g></svg>