<svg xmlns="http://www.w3.org/2000/svg" width="40" height="40" viewBox="0 0 40 40"><g><g><g><path fill="#1da1f2" d="M.11 20c0-11.046 8.954-20 20-20s20 8.954 20 20-8.954 20-20 20-20-8.954-20-20z"/></g><g><path fill="#fff" d="M11.11 26.298A11.261 11.261 0 0 0 17.086 28c7.17 0 11.09-5.771 11.09-10.776 0-.164-.003-.326-.01-.488a7.785 7.785 0 0 0 1.944-1.96 7.884 7.884 0 0 1-2.238.594 3.818 3.818 0 0 0 1.714-2.093 7.97 7.97 0 0 1-2.476.917A3.95 3.95 0 0 0 24.265 13c-2.153 0-3.9 1.694-3.9 3.785 0 .298.036.586.102.863a11.171 11.171 0 0 1-8.034-3.956 3.692 3.692 0 0 0-.528 1.904c0 1.313.688 2.473 1.734 3.152a3.943 3.943 0 0 1-1.766-.474v.048c0 1.834 1.345 3.366 3.126 3.714a3.97 3.97 0 0 1-1.026.132c-.251 0-.496-.023-.733-.068.495 1.506 1.935 2.6 3.64 2.63a7.957 7.957 0 0 1-4.84 1.62c-.314 0-.624-.015-.93-.052"/></g><g><path fill="#fff" d="M11.11 26.298A11.261 11.261 0 0 0 17.086 28c7.17 0 11.09-5.771 11.09-10.776 0-.164-.003-.326-.01-.488a7.785 7.785 0 0 0 1.944-1.96 7.884 7.884 0 0 1-2.238.594 3.818 3.818 0 0 0 1.714-2.093 7.97 7.97 0 0 1-2.476.917A3.95 3.95 0 0 0 24.265 13c-2.153 0-3.9 1.694-3.9 3.785 0 .298.036.586.102.863a11.171 11.171 0 0 1-8.034-3.956 3.692 3.692 0 0 0-.528 1.904c0 1.313.688 2.473 1.734 3.152a3.943 3.943 0 0 1-1.766-.474v.048c0 1.834 1.345 3.366 3.126 3.714a3.97 3.97 0 0 1-1.026.132c-.251 0-.496-.023-.733-.068.495 1.506 1.935 2.6 3.64 2.63a7.957 7.957 0 0 1-4.84 1.62c-.314 0-.624-.015-.93-.052"/></g></g></g></svg>