<svg xmlns="http://www.w3.org/2000/svg" xmlns:xlink="http://www.w3.org/1999/xlink" width="54" height="54" viewBox="0 0 54 54"><defs><path id="uudra" d="M904.742 3111.849v-3.494h50.516v3.494zm40.861 17.41h-3.691l-6.27-15.678h3.36zm-13.861-3.485h-3.484v-12.193h3.484zm-13.654 3.484h-3.691l6.6-15.677h3.362zm37.17-50.516v27.87h-50.516v-27.87zM957 3077h-54v36.58h16.108l-6.527 15.502V3131h6.686l6.968-17.42h.281v13.936h6.968v-13.935h.281l6.968 17.419h6.686v-1.918l-6.527-15.501H957z"/><path id="uudrb" d="M943.054 3087.503v6.917h-6.91a7.846 7.846 0 0 1 6.91-6.917zm8.714 7.793a7.848 7.848 0 0 1-6.96 7.792v-15.585a7.848 7.848 0 0 1 6.96 7.793zm-15.624.866h6.91v6.916a7.846 7.846 0 0 1-6.91-6.916zm-1.794-.871c0 5.282 4.298 9.58 9.58 9.58 5.283 0 9.581-4.298 9.581-9.58 0-5.283-4.298-9.581-9.58-9.581-5.283 0-9.581 4.298-9.581 9.58z"/><path id="uudrc" d="M920.42 3088.391v7.768h-1.742v-5.226h-6.968v5.226h-1.742v-7.768l5.226-4.18zm-3.474 7.768h-3.494v-3.484h3.494zm-8.72-6.374v8.116h13.936v-8.116l1.197.957 1.088-1.36-9.253-7.402-9.254 7.402 1.088 1.36z"/><path id="uudrd" d="M906.48 3103.13h1.742v1.742h-1.742z"/><path id="uudre" d="M909.97 3103.13h13.935v1.742H909.97z"/><path id="uudrf" d="M906.48 3099.65h17.42v1.742h-17.42z"/><path id="uudrg" d="M927.392 3082.222h1.742v7.839h1.742v-7.84h1.742v6.098h1.742v-6.097h1.742v3.484h1.742v-5.226H925.65v7.839h1.742z"/></defs><g><g transform="translate(-903 -3077)"><g><use xlink:href="#uudra"/></g><g><use xlink:href="#uudrb"/></g><g><use xlink:href="#uudrc"/></g><g><use xlink:href="#uudrd"/></g><g><use xlink:href="#uudre"/></g><g><use xlink:href="#uudrf"/></g><g><use xlink:href="#uudrg"/></g></g></g></svg>