<svg xmlns="http://www.w3.org/2000/svg" xmlns:xlink="http://www.w3.org/1999/xlink" width="54" height="54" viewBox="0 0 54 54"><defs><path id="3f06a" d="M930.009 3002.452c.965 0 1.75.783 1.75 1.747a1.75 1.75 0 0 1-3.5 0 1.75 1.75 0 0 1 1.75-1.747zm-.005 5.226a3.487 3.487 0 0 0 3.484-3.484 3.487 3.487 0 0 0-3.484-3.484 3.487 3.487 0 0 0-3.484 3.484 3.487 3.487 0 0 0 3.484 3.484z"/><path id="3f06b" d="M947.413 3029.091l-1.737 1.742-1.737-1.742v-1.381h3.474zm-10.445-4.865h13.93v1.742h-13.93zm-6.097-5.226v-1.742h2.137l1.002 1.742zm-3.386-1.742h1.633V3019h-2.5zm-7.27 10.645c-.21.418-.63.678-1.096.678h-.09a1.226 1.226 0 0 1-1.086-1.795l8.646-16.517a6.932 6.932 0 0 0 2.058.76zm9.78-28.935a5.23 5.23 0 0 1 5.222 5.226 5.23 5.23 0 0 1-5.223 5.225 5.23 5.23 0 0 1-5.222-5.225 5.23 5.23 0 0 1 5.222-5.226zm-1.738-4.353c0-.482.391-.873.871-.873h1.743c.48 0 .87.391.87.873v2.85a6.913 6.913 0 0 0-1.742-.23c-.602 0-1.184.085-1.742.23zm.103 20.901l1.685-3.388 1.944 3.388zm12.462 6.968h-2.787l-6.611-11.47a6.904 6.904 0 0 0 2.048-.79zm3.985-6.968h1.738c.478 0 .868.39.868.871v.871h-3.474v-.87c0-.481.39-.872.868-.872zm-.868 6.968V3019h3.474v3.484zm8.702 1.742c0-.96-.782-1.742-1.742-1.742h-1.742v-6.097a2.616 2.616 0 0 0-2.613-2.613h-1.742a2.616 2.616 0 0 0-2.613 2.613v4.985l-7.323-12.205a6.94 6.94 0 0 0 2.097-4.973 6.967 6.967 0 0 0-3.484-6.026v-3.555a2.616 2.616 0 0 0-2.613-2.613h-1.741a2.616 2.616 0 0 0-2.613 2.613v3.555a6.966 6.966 0 0 0-3.484 6.026c0 1.973.828 3.753 2.151 5.022l-8.78 16.762a2.975 2.975 0 0 0-.339 1.377c0 1.199.718 2.227 1.742 2.695v2.885h1.742v-2.643a2.947 2.947 0 0 0 2.23-1.61l3.97-7.94h9.275l1.128 1.955a1.737 1.737 0 0 0-.926 1.529v1.742c0 .96.782 1.742 1.742 1.742h5.226v2.102l3.484 3.484 3.484-3.484v-2.102h1.742c.96 0 1.742-.782 1.742-1.742z"/><path id="3f06c" d="M945.692 3036.516l-1.162-1.296a21.74 21.74 0 0 1-14.53 5.555 21.734 21.734 0 0 1-14.5-5.532l-1.16 1.3a23.476 23.476 0 0 0 15.66 5.974c5.803 0 11.377-2.13 15.692-6.001z"/><path id="3f06d" d="M930.002 3044.255a25.216 25.216 0 0 1-16.822-6.417l-1.16 1.3a26.958 26.958 0 0 0 17.982 6.859 26.96 26.96 0 0 0 18.017-6.89l-1.163-1.297a25.216 25.216 0 0 1-16.854 6.445z"/><path id="3f06e" d="M924.89 2994.55a.872.872 0 1 0-.54-1.658.872.872 0 0 0 .54 1.658z"/><path id="3f06f" d="M920.567 2995.87a.87.87 0 1 0-1.61.662.87.87 0 0 0 1.61-.662z"/><path id="3f06g" d="M916.616 3000.563a.87.87 0 1 0-1.408-1.024.87.87 0 0 0 1.408 1.024z"/><path id="3f06h" d="M913.162 3005.74a.872.872 0 1 0 .538-1.659.872.872 0 0 0-.538 1.658z"/><path id="3f06i" d="M913.452 3010.291a.871.871 0 1 1-1.742 0 .871.871 0 0 1 1.742 0z"/><path id="3f06j" d="M913.162 3014.843a.871.871 0 1 0 .539 1.656.871.871 0 0 0-.539-1.656z"/><path id="3f06k" d="M916.424 3021.236a.87.87 0 1 0-1.024-1.409.87.87 0 0 0 1.024 1.409z"/><path id="3f06l" d="M935.112 2994.55a.871.871 0 1 0 .538-1.657.871.871 0 0 0-.538 1.657z"/><path id="3f06m" d="M940.62 2995.417a.87.87 0 1 0-.758 1.568.87.87 0 0 0 .758-1.568z"/><path id="3f06n" d="M944.603 3000.756a.871.871 0 1 0-1.024-1.41.871.871 0 0 0 1.024 1.41z"/><path id="3f06o" d="M946.84 3005.74a.871.871 0 1 0-.538-1.657.871.871 0 0 0 .539 1.656z"/><path id="3f06p" d="M948.292 3010.291a.871.871 0 1 1-1.742 0 .871.871 0 0 1 1.742 0z"/><path id="3f06q" d="M903 3018.13h1.742v1.742H903z"/><path id="3f06r" d="M906.48 3018.13h1.742v1.742h-1.742z"/><path id="3f06s" d="M904.74 3016.39h1.742v1.742h-1.742z"/><path id="3f06t" d="M904.74 3019.87h1.742v1.742h-1.742z"/><path id="3f06u" d="M951.77 3037.29h1.742v1.742h-1.742z"/><path id="3f06v" d="M955.26 3037.29h1.742v1.742h-1.742z"/><path id="3f06w" d="M953.52 3035.55h1.742v1.742h-1.742z"/><path id="3f06x" d="M953.52 3039.03h1.742v1.742h-1.742z"/><path id="3f06y" d="M906.48 3030.32h1.742v1.742h-1.742z"/><path id="3f06z" d="M909.97 3030.32h1.742v1.742h-1.742z"/><path id="3f06A" d="M908.23 3028.58h1.742v1.742h-1.742z"/><path id="3f06B" d="M908.23 3032.06h1.742v1.742h-1.742z"/><path id="3f06C" d="M906.48 2995.48h1.742v1.742h-1.742z"/><path id="3f06D" d="M909.97 2995.48h1.742v1.742h-1.742z"/><path id="3f06E" d="M908.23 2993.74h1.742v1.742h-1.742z"/><path id="3f06F" d="M908.23 2997.23h1.742v1.742h-1.742z"/><path id="3f06G" d="M950.03 2995.48h1.742v1.742h-1.742z"/><path id="3f06H" d="M953.52 2995.48h1.742v1.742h-1.742z"/><path id="3f06I" d="M951.77 2993.74h1.742v1.742h-1.742z"/><path id="3f06J" d="M951.77 2997.23h1.742v1.742h-1.742z"/></defs><g><g transform="translate(-903 -2992)"><g><use xlink:href="#3f06a"/></g><g><use xlink:href="#3f06b"/></g><g><use xlink:href="#3f06c"/></g><g><use xlink:href="#3f06d"/></g><g><use xlink:href="#3f06e"/></g><g><use xlink:href="#3f06f"/></g><g><use xlink:href="#3f06g"/></g><g><use xlink:href="#3f06h"/></g><g><use xlink:href="#3f06i"/></g><g><use xlink:href="#3f06j"/></g><g><use xlink:href="#3f06k"/></g><g><use xlink:href="#3f06l"/></g><g><use xlink:href="#3f06m"/></g><g><use xlink:href="#3f06n"/></g><g><use xlink:href="#3f06o"/></g><g><use xlink:href="#3f06p"/></g><g><use xlink:href="#3f06q"/></g><g><use xlink:href="#3f06r"/></g><g><use xlink:href="#3f06s"/></g><g><use xlink:href="#3f06t"/></g><g><use xlink:href="#3f06u"/></g><g><use xlink:href="#3f06v"/></g><g><use xlink:href="#3f06w"/></g><g><use xlink:href="#3f06x"/></g><g><use xlink:href="#3f06y"/></g><g><use xlink:href="#3f06z"/></g><g><use xlink:href="#3f06A"/></g><g><use xlink:href="#3f06B"/></g><g><use xlink:href="#3f06C"/></g><g><use xlink:href="#3f06D"/></g><g><use xlink:href="#3f06E"/></g><g><use xlink:href="#3f06F"/></g><g><use xlink:href="#3f06G"/></g><g><use xlink:href="#3f06H"/></g><g><use xlink:href="#3f06I"/></g><g><use xlink:href="#3f06J"/></g></g></g></svg>