<svg xmlns="http://www.w3.org/2000/svg" xmlns:xlink="http://www.w3.org/1999/xlink" width="54" height="54" viewBox="0 0 54 54"><defs><path id="v955a" d="M515.774 3026.839v-5.226h3.494v5.226zm-34.839-1.742v-3.484h6.958v5.226h-5.218v-1.742zm-2.612 19.161a2.616 2.616 0 0 1-2.613-2.613v-11.322h3.484v-1.742h-3.484v-1.742h5.225v5.226h-3.483v1.741h3.483v7.84a2.616 2.616 0 0 1-2.612 2.612zm-9.581-17.41v-6.223c.773.61 1.734.99 2.792.99h4.176v3.489h-1.742v1.745zm1.742-33.106v5.226h-1.742v-5.226zm43.548 12.193v-5.225h5.226v5.225zm1.742 6.958v-5.216h3.494v5.216zm-1.742 6.968v-5.216h5.226v5.216zm-3.484 1.752h3.484v5.226h-3.484zm-12.193 0h.485a3.476 3.476 0 0 0 3.002 1.742 3.489 3.489 0 0 0 3.487-3.484v-13.936a1.744 1.744 0 0 1 3.487 0v20.904h-10.461zm-1.752 0v5.226h-6.958v-5.226zm-23.532-20.903l-4.33 11.061v-11.061zm6.113-5.159a4.608 4.608 0 0 0-.758-.067h-.224a4.503 4.503 0 0 0-4.218 2.883l-.234.6h-1.524v-5.225h6.958zm8.71.417a3.437 3.437 0 0 0-1.74-.484c-1.77 0-3.217 1.332-3.435 3.046l-.063-.163a4.521 4.521 0 0 0-1.72-2.133v-2.492h6.957zm8.709 3h-6.958v-5.226h6.958zm8.72 0h-6.968v-5.226h6.968zm1.742 0v-5.226h6.967v5.226zm-19.162 12.802l-3.484-8.902v-3.9c0-.961.782-1.742 1.742-1.742.961 0 1.742.781 1.742 1.742zm.754 8.091a4.485 4.485 0 0 0 .933-2.254c.526.32 1.136.513 1.794.513 1.92 0 3.48-1.561 3.48-3.481v-6.963c0-.96.781-1.74 1.74-1.74.96 0 1.74.78 1.74 1.74v12.185zm21.882-13.926a3.487 3.487 0 0 0-3.482-3.483 3.487 3.487 0 0 0-3.483 3.483v13.936c0 .96-.78 1.742-1.74 1.742-.961 0-1.742-.781-1.742-1.742v-12.194a3.487 3.487 0 0 0-3.482-3.483 3.487 3.487 0 0 0-3.483 3.483v6.968c0 .96-.78 1.742-1.74 1.742s-1.742-.781-1.742-1.742v-13.935h22.635v5.225zm.01 6.958v-5.216h3.483v5.216zm0 6.968v-5.216h1.741v5.216zm-26.2 0c-.424-2.948-2.961-5.224-6.026-5.224s-5.603 2.276-6.027 5.224h-.762a2.795 2.795 0 0 1-2.6-3.809l6.677-17.052a2.774 2.774 0 0 1 2.6-1.774h.224c1.157 0 2.178.696 2.6 1.774l6.676 17.053a2.795 2.795 0 0 1-2.6 3.808zm-3.414-2.58a4.347 4.347 0 0 1 1.654 2.59h-1.654zm-5.225 2.59h-1.654a4.345 4.345 0 0 1 1.654-2.59zm1.742 5.226v-8.622a4.36 4.36 0 0 1 1.742 0v8.622zm41.816-26.13h-3.494v-5.225h3.494zM521 2992h-54v36.58h6.968v13.065a4.36 4.36 0 0 0 4.355 4.355 4.36 4.36 0 0 0 4.354-4.355v-13.064H521z"/></defs><g><g transform="translate(-467 -2992)"><use xlink:href="#v955a"/></g></g></svg>