<svg xmlns="http://www.w3.org/2000/svg" xmlns:xlink="http://www.w3.org/1999/xlink" width="54" height="54" viewBox="0 0 54 54"><defs><path id="hy1da" d="M519.258 3128.387c0 .48-.391.871-.87.871h-20.904a.873.873 0 0 1-.871-.87v-31.356c0-.48.391-.87.87-.87h20.904c.48 0 .871.39.871.87zm-30.484-29.613h6.097v4.336a8.716 8.716 0 0 1-6.097 3.45zm-1.742 7.795c-4.395-.439-7.838-4.158-7.838-8.666s3.443-8.227 7.838-8.665zm7.839-9.537h-6.097v-7.79a8.74 8.74 0 0 1 7.287 5.604 2.607 2.607 0 0 0-1.19 2.186zm-23.516 20.033a2.616 2.616 0 0 1-2.613-2.613 2.616 2.616 0 0 1 2.613-2.613h4.355v-26.13h40.064v8.71h-18.02c-1.463-4.134-5.414-6.967-9.85-6.967-5.764 0-10.452 4.688-10.452 10.451 0 5.764 4.688 10.452 10.451 10.452a10.46 10.46 0 0 0 6.968-2.673v11.383zm-2.613-35.71a2.616 2.616 0 0 1 2.613-2.613h2.613v31.355h-2.613c-.98 0-1.885.326-2.613.872zm49.645 13.064h-.87v-10.451H475.71V3077h-4.355a4.36 4.36 0 0 0-4.355 4.355v33.097a4.36 4.36 0 0 0 4.355 4.354h23.516v9.581a2.616 2.616 0 0 0 2.613 2.613h20.903a2.616 2.616 0 0 0 2.613-2.613v-31.355a2.616 2.616 0 0 0-2.613-2.613z"/><path id="hy1db" d="M500.093 3099.642h15.675v5.226h-15.675zm-1.743 6.968h19.161v-8.71H498.35z"/><path id="hy1dc" d="M514.032 3124.032h1.742v1.742h-1.742zm-1.742 3.484h5.226v-5.226h-5.226z"/><path id="hy1dd" d="M507.062 3124.032h1.742v1.742h-1.742zm-1.742 3.484h5.226v-5.226h-5.226z"/><path id="hy1de" d="M500.092 3124.032h1.742v1.742h-1.742zm-1.742 3.484h5.226v-5.226h-5.226z"/><path id="hy1df" d="M514.032 3117.062h1.742v1.742h-1.742zm-1.742 3.484h5.226v-5.226h-5.226z"/><path id="hy1dg" d="M507.062 3117.062h1.742v1.742h-1.742zm-1.742 3.484h5.226v-5.226h-5.226z"/><path id="hy1dh" d="M500.092 3117.062h1.742v1.742h-1.742zm-1.742 3.484h5.226v-5.226h-5.226z"/><path id="hy1di" d="M514.032 3110.092h1.742v1.742h-1.742zm-1.742 3.484h5.226v-5.226h-5.226z"/><path id="hy1dj" d="M507.062 3110.092h1.742v1.742h-1.742zm-1.742 3.484h5.226v-5.226h-5.226z"/><path id="hy1dk" d="M500.092 3110.092h1.742v1.742h-1.742zm-1.742 3.484h5.226v-5.226h-5.226z"/><path id="hy1dl" d="M501.84 3087.45h12.194v1.742H501.84z"/><path id="hy1dm" d="M500.1 3090.94h13.935v1.742H500.1z"/></defs><g><g transform="translate(-467 -3077)"><g><use xlink:href="#hy1da"/></g><g><use xlink:href="#hy1db"/></g><g><use xlink:href="#hy1dc"/></g><g><use xlink:href="#hy1dd"/></g><g><use xlink:href="#hy1de"/></g><g><use xlink:href="#hy1df"/></g><g><use xlink:href="#hy1dg"/></g><g><use xlink:href="#hy1dh"/></g><g><use xlink:href="#hy1di"/></g><g><use xlink:href="#hy1dj"/></g><g><use xlink:href="#hy1dk"/></g><g><use xlink:href="#hy1dl"/></g><g><use xlink:href="#hy1dm"/></g></g></g></svg>