<svg xmlns="http://www.w3.org/2000/svg" xmlns:xlink="http://www.w3.org/1999/xlink" width="41" height="44" viewBox="0 0 41 44"><defs><path id="se6qa" d="M430.133 1726.8v-19.067a.733.733 0 0 0-.733-.733h-36.667a.733.733 0 0 0-.733.733v42.534c0 .405.328.733.733.733H429.4a.733.733 0 0 0 .733-.733v-13.2h-1.466v12.466h-35.2v-41.066h35.2v18.333z"/><path id="se6qb" d="M427.197 1726.063v-15.4a.733.733 0 0 0-.734-.733h-30.8a.733.733 0 0 0-.733.733v36.667c0 .405.328.733.733.733h30.8a.733.733 0 0 0 .734-.733v-8.8h-1.467v8.067h-29.333v-35.2h29.333v14.666z"/><path id="se6qc" d="M398.27 1717.64v-1.47h7.26v1.47z"/><path id="se6qd" d="M397.36 1719.84v-1.47h13.48v1.47z"/><path id="se6qe" d="M406.67 1740.737v2.2a.733.733 0 0 1-1.467 0v-2.934a2.2 2.2 0 1 0-4.4 0v.734a.733.733 0 0 1-1.466 0v-3.667h-1.467v3.667a2.2 2.2 0 1 0 4.4 0v-.734a.733.733 0 0 1 1.467 0v2.934a2.2 2.2 0 1 0 4.4 0v-2.2z"/><path id="se6qf" d="M425.727 1735.527l-14.661-1.333v-4.464h2.932a.733.733 0 0 0 .733-.733v-2.2h1.013l1.26 2.527c.133.27.417.43.717.403l8.006-.667zm-4.397 1.966l-.977-.983 1.792.164zm-11.216-11.215a.74.74 0 0 0-.286-.177l-1.074-.358.992-.995.993-.993.357 1.073a.733.733 0 0 0 .177.287l1.984 1.985v1.163h-1.161zm-7.85 3.879l-1.169-1.179L414 1716.1l1.164 1.163zm30.798-.427v-1.467h-5.866a.733.733 0 0 0-.794-.73l-8.305.691-1.247-2.489a.733.733 0 0 0-.654-.405h-2.2a.714.714 0 0 0-.338.092l-1.221-1.221-.536-1.606 4.813-4.813a.733.733 0 0 0 0-1.037l-2.2-2.2a.733.733 0 0 0-1.037 0l-13.933 13.912a.733.733 0 0 0 0 1.035l2.2 2.222a.733.733 0 0 0 1.037.001l4.813-4.813 1.606.535.88.88a.733.733 0 0 0-.484.68v5.866a.733.733 0 0 0 .667.734l7.802.709 2.746 2.745a.733.733 0 0 0 1.037 0l2.2-2.2 2.346.214h.066a.733.733 0 0 0 .734-.734v-.734h5.866v-1.467h-5.864v-4.4z"/><path id="se6qg" d="M419.87 1725.82v-8.3h1.47v8.3z"/><path id="se6qh" d="M405.93 1739.75v-8.3h1.47v8.3z"/></defs><g><g transform="translate(-392 -1707)"><g><use xlink:href="#se6qa"/></g><g><use xlink:href="#se6qb"/></g><g transform="rotate(-45 401.5 1717)"><use xlink:href="#se6qc"/></g><g transform="rotate(-45 404 1719)"><use xlink:href="#se6qd"/></g><g><use xlink:href="#se6qe"/></g><g><use xlink:href="#se6qf"/></g><g transform="rotate(-45 421 1721.5)"><use xlink:href="#se6qg"/></g><g transform="rotate(-45 407 1735.5)"><use xlink:href="#se6qh"/></g></g></g></svg>