<svg xmlns="http://www.w3.org/2000/svg" xmlns:xlink="http://www.w3.org/1999/xlink" width="30" height="30" viewBox="0 0 30 30"><defs><path id="6e4pa" d="M399.967 558.058a2.421 2.421 0 0 1 2.418 2.42 2.421 2.421 0 0 1-2.418 2.418 2.421 2.421 0 0 1-2.418-2.419 2.421 2.421 0 0 1 2.418-2.42zm0 5.806a3.391 3.391 0 0 0 3.387-3.387 3.391 3.391 0 0 0-3.387-3.387 3.391 3.391 0 0 0-3.387 3.387 3.391 3.391 0 0 0 3.387 3.387z"/><path id="6e4pb" d="M390.911 570.15h3.694l5.28 7.625 5.278-7.625h3.523l4.379 9.194h-26.532zm2.324-3.683c-2.515-3.353-2.155-8.86.773-11.786a8.26 8.26 0 0 1 5.877-2.434 8.26 8.26 0 0 1 5.877 2.434c2.927 2.925 3.288 8.433.761 11.8l-6.639 9.584-4.772-6.89zm16.063 2.716h-3.465l1.474-2.13c2.785-3.711 2.382-9.812-.861-13.055a9.217 9.217 0 0 0-6.562-2.718 9.219 9.219 0 0 0-6.56 2.718c-3.244 3.243-3.647 9.344-.874 13.041l1.485 2.144h-3.636L385 580.312h29.597z"/></defs><g><g transform="translate(-385 -551)"><use xlink:href="#6e4pa"/></g><g transform="translate(-385 -551)"><use xlink:href="#6e4pb"/></g></g></svg>