<svg xmlns="http://www.w3.org/2000/svg" xmlns:xlink="http://www.w3.org/1999/xlink" width="44" height="40" viewBox="0 0 44 40"><defs><path id="y1fwa" d="M1191.709 1729.562a.708.708 0 0 1-.709-.709v-11.335c0-.391.317-.708.709-.708h11.334a.708.708 0 1 1 0 1.417h-10.626v10.626a.708.708 0 0 1-.708.709z"/><path id="y1fwb" d="M1191.709 1736.644a.708.708 0 0 1-.709-.708v-7.823c0-.275.16-.526.41-.642l5.667-2.636a.716.716 0 0 1 .598 0l4.909 2.283a.71.71 0 0 1-.598 1.285l-4.61-2.144-4.96 2.306v7.372c0 .39-.316.707-.707.707z"/><path id="y1fwc" d="M1191.709 1745.232a.708.708 0 0 1-.709-.708v-8.94c0-.238.118-.458.315-.59l5.313-3.555a.71.71 0 0 1 .788 0l5.313 3.556a.706.706 0 0 1 .314.588v8.176a.708.708 0 1 1-1.417 0v-7.798l-4.604-3.08-4.605 3.08v8.563a.708.708 0 0 1-.708.708z"/><path id="y1fwd" d="M1202.339 1729.562a.708.708 0 0 1-.709-.709v-11.335c0-.391.317-.708.709-.708h11.334a.708.708 0 1 1 0 1.417h-10.626v10.626a.708.708 0 0 1-.708.709z"/><path id="y1fwe" d="M1202.339 1736.644a.708.708 0 0 1-.709-.708v-7.823c0-.275.16-.526.41-.642l5.667-2.636a.716.716 0 0 1 .598 0l4.91 2.283a.71.71 0 0 1-.598 1.285l-4.611-2.144-4.959 2.306v7.372c0 .39-.317.707-.708.707z"/><path id="y1fwf" d="M1202.339 1744.524a.708.708 0 0 1-.709-.709v-8.232c0-.237.118-.457.315-.588l5.313-3.556a.71.71 0 0 1 .788 0l5.313 3.556a.706.706 0 0 1 .314.588v8.176a.708.708 0 1 1-1.416 0v-7.798l-4.605-3.08-4.605 3.08v7.854a.708.708 0 0 1-.708.709z"/><path id="y1fwg" d="M1212.958 1729.562a.708.708 0 0 1-.708-.709v-11.335c0-.391.317-.708.708-.708h5.668a.708.708 0 1 1 0 1.417h-4.96v10.626a.708.708 0 0 1-.708.709z"/><path id="y1fwh" d="M1212.958 1736.64a.708.708 0 0 1-.708-.709v-7.823c0-.275.16-.526.41-.642l5.313-2.47a.71.71 0 0 1 .597 1.285l-4.903 2.279v7.371a.708.708 0 0 1-.709.709z"/><path id="y1fwi" d="M1212.958 1744.524a.708.708 0 0 1-.708-.709v-8.232c0-.237.118-.457.315-.588l5.313-3.556a.71.71 0 0 1 .787 0l5.314 3.556a.706.706 0 0 1 .314.588v8.176a.708.708 0 1 1-1.416 0v-7.798l-4.605-3.08-4.605 3.08v7.854a.708.708 0 0 1-.709.709z"/><path id="y1fwj" d="M1234.217 1736.646a.708.708 0 0 1-.708-.708v-17.711h-4.63a.709.709 0 1 1 0-1.417h5.338c.392 0 .709.317.709.708v18.42a.708.708 0 0 1-.709.708z"/><path id="y1fwk" d="M1234.166 1728.47a.713.713 0 0 1-.298-.067l-4.61-2.144-.081.039a.709.709 0 0 1-.596-1.285l.38-.178a.714.714 0 0 1 .596 0l4.91 2.283a.71.71 0 0 1-.3 1.351z"/><path id="y1fwl" d="M1223.589 1736.64a.708.708 0 0 1-.709-.708v-7.823a.708.708 0 1 1 1.417 0v7.823a.708.708 0 0 1-.708.708z"/><path id="y1fwm" d="M1234.215 1745.175a.708.708 0 0 1-.708-.708v-8.506l-4.605-3.08-4.605 3.08v7.854a.708.708 0 1 1-1.417 0v-8.232c0-.237.118-.457.315-.588l5.313-3.556a.71.71 0 0 1 .788 0l5.313 3.556a.706.706 0 0 1 .315.588v8.884a.709.709 0 0 1-.71.708z"/><path id="y1fwn" d="M1218.25 1743.888c.137 0 .274.04.393.12l4.752 3.184 4.98-3.192a.707.707 0 0 1 .77.003l4.36 2.841v-1.937l-4.74-3.092-4.84 3.188a.708.708 0 0 1-.78 0l-4.808-3.184-4.792 3.183a.71.71 0 0 1-.785 0l-4.81-3.199-5.5 3.22a.707.707 0 0 1-.773-.037l-4.365-3.162-4.895 3.09v1.952l4.538-2.869a.708.708 0 0 1 .803.032l4.23 3.163 5.542-3.208a.709.709 0 0 1 .746.021l4.803 3.184 4.777-3.182a.707.707 0 0 1 .393-.12zm15.964 4.972a.708.708 0 0 1-.387-.115l-5.072-3.305-4.986 3.196a.712.712 0 0 1-.777-.008l-4.745-3.18-4.773 3.181a.71.71 0 0 1-.785.001l-4.83-3.2-5.566 3.223a.709.709 0 0 1-.779-.046l-4.214-3.151-5.213 3.295a.708.708 0 1 1-1.087-.6v-3.627a.71.71 0 0 1 .33-.599l5.63-3.555a.705.705 0 0 1 .795.026l4.378 3.172 5.484-3.21a.708.708 0 0 1 .75.021l4.785 3.183 4.792-3.183a.71.71 0 0 1 .783 0l4.81 3.185 4.836-3.186a.707.707 0 0 1 .776-.002l5.452 3.555c.2.13.321.354.321.594v3.627a.708.708 0 0 1-.708.708z"/><path id="y1fwo" d="M1219.338 1712.542h8.499v-2.115h-8.499zm9.208 1.427h-9.918a.708.708 0 0 1-.708-.708v-3.543c0-.391.317-.708.708-.708h9.918c.392 0 .709.317.709.708v3.543a.708.708 0 0 1-.709.708z"/><path id="y1fwp" d="M1219.338 1725.52l4.222 1.492 4.277-1.495v-11.54h-8.499zm4.221 2.95a.702.702 0 0 1-.236-.04l-4.93-1.741a.71.71 0 0 1-.473-.669v-12.751c0-.392.317-.709.708-.709h9.918c.392 0 .709.317.709.709v12.751a.71.71 0 0 1-.475.67l-4.987 1.741a.714.714 0 0 1-.234.04z"/><path id="y1fwq" d="M1228.549 1717.517h-4.25a.708.708 0 1 1 0-1.417h4.25a.708.708 0 1 1 0 1.417z"/><path id="y1fwr" d="M1222.879 1721.057h-4.25a.708.708 0 0 1 0-1.417h4.25a.708.708 0 1 1 0 1.417z"/></defs><g><g transform="translate(-1191 -1709)"><g><use xlink:href="#y1fwa"/></g><g><use xlink:href="#y1fwb"/></g><g><use xlink:href="#y1fwc"/></g><g><use xlink:href="#y1fwd"/></g><g><use xlink:href="#y1fwe"/></g><g><use xlink:href="#y1fwf"/></g><g><use xlink:href="#y1fwg"/></g><g><use xlink:href="#y1fwh"/></g><g><use xlink:href="#y1fwi"/></g><g><use xlink:href="#y1fwj"/></g><g><use xlink:href="#y1fwk"/></g><g><use xlink:href="#y1fwl"/></g><g><use xlink:href="#y1fwm"/></g><g><use xlink:href="#y1fwn"/></g><g><use xlink:href="#y1fwo"/></g><g><use xlink:href="#y1fwp"/></g><g><use xlink:href="#y1fwq"/></g><g><use xlink:href="#y1fwr"/></g></g></g></svg>