<svg xmlns="http://www.w3.org/2000/svg" width="26" height="28" viewBox="0 0 26 28"><g><g><path d="M21.061 19.76c-1.065 0-2.02.419-2.746 1.078l-10.01-5.822c.073-.322.129-.647.129-.983 0-.335-.057-.659-.128-.983l9.896-5.767a4.194 4.194 0 0 0 2.86 1.136 4.202 4.202 0 0 0 4.212-4.21A4.206 4.206 0 0 0 21.061 0a4.205 4.205 0 0 0-4.21 4.208c0 .34.058.66.129.983l-9.896 5.772a4.183 4.183 0 0 0-2.861-1.138A4.204 4.204 0 0 0 .01 14.033c0 2.329 1.88 4.21 4.213 4.21a4.194 4.194 0 0 0 2.86-1.136l9.991 5.835a4.085 4.085 0 0 0-.112.915 4.104 4.104 0 0 0 4.098 4.098 4.105 4.105 0 0 0 4.101-4.098 4.103 4.103 0 0 0-4.1-4.096z"/></g></g></svg>