<svg xmlns="http://www.w3.org/2000/svg" xmlns:xlink="http://www.w3.org/1999/xlink" width="43" height="44" viewBox="0 0 43 44"><defs><path id="olyga" d="M817.138 1332.088l8.197 8.202c.726.727 1.664 1.139 2.642 1.161a3.537 3.537 0 0 0 2.607-1.058 3.552 3.552 0 0 0 1.058-2.61c-.022-.978-.435-1.917-1.16-2.643l-8.236-8.242zm10.93 10.84h-.117c-1.36-.032-2.657-.598-3.653-1.594l-8.722-8.721a.738.738 0 0 1-.004-1.04l6.148-6.24c.138-.142.317-.24.525-.22.196 0 .384.077.522.216l8.768 8.767c.996.996 1.562 2.294 1.593 3.653a5.012 5.012 0 0 1-1.49 3.687 5.012 5.012 0 0 1-3.57 1.492z"/><path id="olygb" d="M813.991 1328.942l2.107 2.103 5.118-5.19-2.067-2.064zm2.108 3.889a.738.738 0 0 1-.522-.216l-3.151-3.152a.738.738 0 0 1 0-1.043l6.194-6.194a.739.739 0 0 1 1.044 0l3.104 3.104c.287.287.288.751.004 1.04l-6.147 6.24a.74.74 0 0 1-.523.22h-.003z"/><path id="olygc" d="M806.025 1330.197l-.046-.002a.734.734 0 0 1-.536-.283l-15.267-19.623a.737.737 0 0 1 .06-.975l10.097-10.097a.737.737 0 0 1 .975-.06l19.623 15.267a.74.74 0 0 1 .069 1.104l-6.566 6.566a.738.738 0 0 1-1.044-1.044l5.975-5.974-18.449-14.354-9.176 9.175 14.354 18.449 5.07-5.07a.738.738 0 0 1 1.044 1.043l-5.661 5.662a.737.737 0 0 1-.522.216z"/><path id="olygd" d="M807.881 1317.708l6.945 7.889 1.16-1.16-7.886-6.948zm6.912 9.704h-.023a.737.737 0 0 1-.53-.25l-7.926-8.998a.738.738 0 0 1 .032-1.01l1.199-1.198a.738.738 0 0 1 1.009-.032l8.999 7.926a.74.74 0 0 1 .034 1.076l-2.272 2.27a.74.74 0 0 1-.522.216z"/><path id="olyge" d="M829.228 1339.928a.738.738 0 0 1-.522-1.26c.212-.213.33-.494.33-.794 0-.3-.117-.582-.33-.794a.738.738 0 0 1 1.043-1.044 2.58 2.58 0 0 1 .762 1.838c0 .694-.27 1.347-.761 1.838a.738.738 0 0 1-.522.216z"/></defs><g><g transform="translate(-790 -1299)"><g><use xlink:href="#olyga"/></g><g><use xlink:href="#olygb"/></g><g><use xlink:href="#olygc"/></g><g><use xlink:href="#olygd"/></g><g><use xlink:href="#olyge"/></g></g></g></svg>