<svg xmlns="http://www.w3.org/2000/svg" xmlns:xlink="http://www.w3.org/1999/xlink" width="44" height="40" viewBox="0 0 44 40"><defs><path id="1bexa" d="M398.2 1340.204h14.407v-7.203h-14.406zm15.127 1.44H397.48a.72.72 0 0 1-.72-.72v-8.644a.72.72 0 0 1 .72-.72h15.847a.72.72 0 0 1 .72.72v8.644a.72.72 0 0 1-.72.72z"/><path id="1bexb" d="M411.713 1320.032h2.625v-2.881h-.782zm3.335 1.44H410.4a.721.721 0 0 1-.607-1.107l2.753-4.322a.72.72 0 0 1 .607-.333h1.895a.72.72 0 0 1 .72.72v4.322a.72.72 0 0 1-.72.72z"/><path id="1bexc" d="M408.043 1332.998h-7.473a.721.721 0 0 1-.69-.924l4.653-15.848a.72.72 0 0 1 .691-.516h7.932a.72.72 0 1 1 0 1.44h-7.392l-4.231 14.407h5.986l3.557-11.026a.721.721 0 0 1 1.371.442l-3.718 11.525a.721.721 0 0 1-.686.5z"/><path id="1bexd" d="M418.537 1313.654h2.384v-8.137h-2.384zm2.993 1.227h-3.601a.608.608 0 0 1-.609-.609v-9.364c0-.336.272-.608.609-.608h3.601c.337 0 .609.272.609.608v9.364a.608.608 0 0 1-.609.609z"/><path id="1bexe" d="M399.33 1303.46c-3.193 0-5.89 2.596-5.89 5.668v1.17c0 2.983 2.642 5.408 5.89 5.408h17.881v-12.245zm18.602 13.687h-18.603c-4.041 0-7.329-3.072-7.329-6.849v-1.17c0-3.853 3.356-7.108 7.33-7.108h18.602a.72.72 0 0 1 .72.72v13.686a.72.72 0 0 1-.72.72z"/><path id="1bexf" d="M425.853 1310.671h4.318v-1.44h-4.318zm5.04 1.44h-5.763a.72.72 0 0 1-.72-.72v-2.88a.72.72 0 0 1 .72-.721h5.763a.72.72 0 0 1 .72.72v2.882a.72.72 0 0 1-.72.72z"/><path id="1bexg" d="M435.222 1310.67H430.9a.72.72 0 1 1 0-1.44h4.322a.72.72 0 0 1 0 1.44z"/><path id="1bexh" d="M422.25 1313.545h2.162v-7.924h-2.161zm2.882 1.44h-3.602a.72.72 0 0 1-.72-.72v-9.365a.72.72 0 0 1 .72-.72h3.602a.72.72 0 0 1 .72.72v9.365a.72.72 0 0 1-.72.72z"/><path id="1bexi" d="M404.244 1310.67H395.6a.72.72 0 1 1 0-1.44h8.644a.72.72 0 0 1 0 1.44z"/><path id="1bexj" d="M402.082 1307.78h-4.322a.72.72 0 1 1 0-1.44h4.322a.72.72 0 0 1 0 1.44z"/><path id="1bexk" d="M402.082 1314.27h-4.322a.72.72 0 1 1 0-1.44h4.322a.72.72 0 0 1 0 1.44z"/><path id="1bexl" d="M410.732 1324.35h-3.602a.72.72 0 0 1 0-1.44h3.602a.72.72 0 1 1 0 1.44z"/><path id="1bexm" d="M409.291 1327.23h-2.16a.72.72 0 0 1 0-1.44h2.16a.72.72 0 1 1 0 1.44z"/></defs><g><g transform="translate(-392 -1302)"><g><use xlink:href="#1bexa"/></g><g><use xlink:href="#1bexb"/></g><g><use xlink:href="#1bexc"/></g><g><use xlink:href="#1bexd"/></g><g><use xlink:href="#1bexe"/></g><g><use xlink:href="#1bexf"/></g><g><use xlink:href="#1bexg"/></g><g><use xlink:href="#1bexh"/></g><g><use xlink:href="#1bexi"/></g><g><use xlink:href="#1bexj"/></g><g><use xlink:href="#1bexk"/></g><g><use xlink:href="#1bexl"/></g><g><use xlink:href="#1bexm"/></g></g></g></svg>