<svg xmlns="http://www.w3.org/2000/svg" xmlns:xlink="http://www.w3.org/1999/xlink" width="42" height="44" viewBox="0 0 42 44"><defs><path id="wkksa" d="M831.147 1746.894a9.067 9.067 0 0 1-6.78 2.99 9.054 9.054 0 0 1-6.742-3.078 9.006 9.006 0 0 1-.343-.42l-.005-.01a8.88 8.88 0 0 1-.653-.969l-.016-.027a9.073 9.073 0 0 1-.478-.96l-.06-.139a8.92 8.92 0 0 1-.38-1.149 8.968 8.968 0 0 1-.223-1.17 8.98 8.98 0 0 1-.068-.87c-.003-.1-.001-.197-.001-.296a9.1 9.1 0 0 1 .043-.887c.009-.083.022-.167.032-.25a8.88 8.88 0 0 1 .166-.93c.013-.055.03-.11.044-.164.084-.325.182-.647.303-.963l.012-.035c.754 2 1.714 3.529 2.064 4.057l.14.209a.72.72 0 1 0 1.295-.565l-.027-.126a13.162 13.162 0 0 1-.308-3.169c.075-3.177 1.283-6.313 3.46-8.793l1.752-1.995c.03.05.059.104.09.155 1.864 3.137 2.814 6.323 2.814 9.481a.722.722 0 0 0 1.397.25c.03-.08.617-1.678 1.014-3.949l1.367 1.556c3.123 3.556 3.16 8.807.091 12.216zm-21.536 2.91a19.61 19.61 0 0 1-3.8-1.647.716.716 0 1 0-1.201-.722 22.667 22.667 0 0 1-1.648-1.18c-.03-.024-.058-.05-.088-.075.077.028.158.05.246.05a.722.722 0 1 0-.722-.721c0 .14.05.263.12.373a21.484 21.484 0 0 1-3.705-3.985.719.719 0 0 0-.022-1.438.72.72 0 0 0-.66.433 22.872 22.872 0 0 1-.892-1.517.701.701 0 0 0 .11-.359.714.714 0 0 0-.648-.706 23.536 23.536 0 0 1-1.742-5.266.716.716 0 0 0-.214-1.183 23.925 23.925 0 0 1-.264-2.947.72.72 0 0 0-.018-1.439v-2.885a.722.722 0 0 0 0-1.443v-2.885a.722.722 0 0 0 0-1.442v-2.886a.722.722 0 0 0 .721-.721c0-.015-.007-.027-.008-.042a29.16 29.16 0 0 0 2.98-.283.7.7 0 0 0-.086.325.722.722 0 1 0 1.223-.516c2.069-.399 3.82-.99 5.27-1.643a.72.72 0 0 0 1.442-.005.711.711 0 0 0-.28-.557 19.67 19.67 0 0 0 1.567-.917c.052.011.1.031.156.031a.714.714 0 0 0 .702-.627c.64-.472 1.13-.899 1.462-1.217 1.54 1.478 6.318 5.246 15.149 5.443v10.186a.723.723 0 0 0-.872.166l-2.344 2.67c-2.407 2.74-3.739 6.212-3.818 9.732a18.121 18.121 0 0 1-.42-1.054 15.24 15.24 0 0 1-.454-1.422.72.72 0 0 0-1.31-.202c-.014.023-.024.046-.039.07-.129.21-.25.421-.363.638-.04.078-.075.157-.114.236-.082.167-.162.334-.235.505-.035.081-.064.163-.097.245-.069.174-.134.349-.194.526l-.07.223a10.093 10.093 0 0 0-.331 1.408 10.658 10.658 0 0 0-.105.867l-.005.046c-.102 1.36.058 2.732.48 4.036l.053.152c.065.192.133.381.21.569.039.097.081.191.123.286a10.724 10.724 0 0 0 .383.781 10.677 10.677 0 0 0 .433.726l.046.074c-1.924 1.423-3.975 2.476-6.107 3.135zm22.53-16.076l-2.399-2.735a.721.721 0 1 0-1.26.397c-.056.513-.129 1.006-.21 1.47-.41-1.807-1.105-3.607-2.072-5.39v-12.978a.72.72 0 0 0-.721-.721c-10.551 0-15.27-5.457-15.314-5.511-.136-.164-.319-.273-.556-.259a.726.726 0 0 0-.552.257c-.046.056-4.764 5.513-15.316 5.513a.72.72 0 0 0-.721.721v13.767c0 7.525 3.383 14.677 9.05 19.13 2.284 1.795 4.752 3.094 7.335 3.86a.733.733 0 0 0 .41 0c2.375-.704 4.651-1.865 6.779-3.441a10.497 10.497 0 0 0 7.768 3.519h.066c2.969 0 5.806-1.262 7.792-3.468 3.558-3.952 3.524-10.027-.078-14.131z"/><path id="wkksb" d="M808.89 1713.05a.72.72 0 1 1 1.44 0 .72.72 0 0 1-1.44 0z"/><path id="wkksc" d="M795.9 1717.38a.72.72 0 1 1 1.44 0 .72.72 0 0 1-1.44 0z"/><path id="wkksd" d="M800.23 1717.38a.72.72 0 1 1 1.44 0 .72.72 0 0 1-1.44 0z"/><path id="wkkse" d="M802.4 1715.21a.72.72 0 1 1 1.44 0 .72.72 0 0 1-1.44 0z"/><path id="wkksf" d="M804.56 1717.38a.72.72 0 1 1 1.44 0 .72.72 0 0 1-1.44 0z"/><path id="wkksg" d="M806.72 1715.21a.72.72 0 1 1 1.44 0 .72.72 0 0 1-1.44 0z"/><path id="wkksh" d="M808.89 1717.38a.72.72 0 1 1 1.44 0 .72.72 0 0 1-1.44 0z"/><path id="wkksi" d="M795.9 1721.7a.72.72 0 1 1 1.44 0 .72.72 0 0 1-1.44 0z"/><path id="wkksj" d="M798.07 1719.54a.72.72 0 1 1 1.44 0 .72.72 0 0 1-1.44 0z"/><path id="wkksk" d="M800.23 1721.7a.72.72 0 1 1 1.44 0 .72.72 0 0 1-1.44 0z"/><path id="wkksl" d="M802.4 1719.54a.72.72 0 1 1 1.44 0 .72.72 0 0 1-1.44 0z"/><path id="wkksm" d="M804.56 1721.7a.72.72 0 1 1 1.44 0 .72.72 0 0 1-1.44 0z"/><path id="wkksn" d="M806.72 1719.54a.72.72 0 1 1 1.44 0 .72.72 0 0 1-1.44 0z"/><path id="wkkso" d="M808.89 1721.7a.72.72 0 1 1 1.44 0 .72.72 0 0 1-1.44 0z"/><path id="wkksp" d="M795.9 1726.03a.72.72 0 1 1 1.44 0 .72.72 0 0 1-1.44 0z"/><path id="wkksq" d="M798.07 1723.87a.72.72 0 1 1 1.44 0 .72.72 0 0 1-1.44 0z"/><path id="wkksr" d="M800.23 1726.03a.72.72 0 1 1 1.44 0 .72.72 0 0 1-1.44 0z"/><path id="wkkss" d="M802.4 1723.87a.72.72 0 1 1 1.44 0 .72.72 0 0 1-1.44 0z"/><path id="wkkst" d="M804.56 1726.03a.72.72 0 1 1 1.44 0 .72.72 0 0 1-1.44 0z"/><path id="wkksu" d="M806.72 1723.87a.72.72 0 1 1 1.44 0 .72.72 0 0 1-1.44 0z"/><path id="wkksv" d="M808.89 1726.03a.72.72 0 1 1 1.44 0 .72.72 0 0 1-1.44 0z"/><path id="wkksw" d="M795.9 1730.36a.72.72 0 1 1 1.44 0 .72.72 0 0 1-1.44 0z"/><path id="wkksx" d="M798.07 1728.2a.72.72 0 1 1 1.44 0 .72.72 0 0 1-1.44 0z"/><path id="wkksy" d="M800.23 1730.36a.72.72 0 1 1 1.44 0 .72.72 0 0 1-1.44 0z"/><path id="wkksz" d="M802.4 1728.2a.72.72 0 1 1 1.44 0 .72.72 0 0 1-1.44 0z"/><path id="wkksA" d="M804.56 1730.36a.72.72 0 1 1 1.44 0 .72.72 0 0 1-1.44 0z"/><path id="wkksB" d="M806.72 1728.2a.72.72 0 1 1 1.44 0 .72.72 0 0 1-1.44 0z"/><path id="wkksC" d="M808.89 1730.36a.72.72 0 1 1 1.44 0 .72.72 0 0 1-1.44 0z"/><path id="wkksD" d="M795.9 1734.69a.72.72 0 1 1 1.44 0 .72.72 0 0 1-1.44 0z"/><path id="wkksE" d="M798.07 1732.52a.72.72 0 1 1 1.44 0 .72.72 0 0 1-1.44 0z"/><path id="wkksF" d="M800.23 1734.69a.72.72 0 1 1 1.44 0 .72.72 0 0 1-1.44 0z"/><path id="wkksG" d="M802.4 1732.52a.72.72 0 1 1 1.44 0 .72.72 0 0 1-1.44 0z"/><path id="wkksH" d="M804.56 1734.69a.72.72 0 1 1 1.44 0 .72.72 0 0 1-1.44 0z"/><path id="wkksI" d="M806.72 1732.52a.72.72 0 1 1 1.44 0 .72.72 0 0 1-1.44 0z"/><path id="wkksJ" d="M808.89 1734.69a.72.72 0 1 1 1.44 0 .72.72 0 0 1-1.44 0z"/><path id="wkksK" d="M798.07 1736.85a.72.72 0 1 1 1.44 0 .72.72 0 0 1-1.44 0z"/><path id="wkksL" d="M800.23 1739.02a.72.72 0 1 1 1.44 0 .72.72 0 0 1-1.44 0z"/><path id="wkksM" d="M802.4 1736.85a.72.72 0 1 1 1.44 0 .72.72 0 0 1-1.44 0z"/><path id="wkksN" d="M804.56 1739.02a.72.72 0 1 1 1.44 0 .72.72 0 0 1-1.44 0z"/><path id="wkksO" d="M806.72 1736.85a.72.72 0 1 1 1.44 0 .72.72 0 0 1-1.44 0z"/><path id="wkksP" d="M808.89 1739.02a.72.72 0 1 1 1.44 0 .72.72 0 0 1-1.44 0z"/><path id="wkksQ" d="M800.23 1743.34a.72.72 0 1 1 1.44 0 .72.72 0 0 1-1.44 0z"/><path id="wkksR" d="M802.4 1741.18a.72.72 0 1 1 1.44 0 .72.72 0 0 1-1.44 0z"/><path id="wkksS" d="M804.56 1743.34a.72.72 0 1 1 1.44 0 .72.72 0 0 1-1.44 0z"/><path id="wkksT" d="M806.72 1741.18a.72.72 0 1 1 1.44 0 .72.72 0 0 1-1.44 0z"/><path id="wkksU" d="M808.89 1743.34a.72.72 0 1 1 1.44 0 .72.72 0 0 1-1.44 0z"/><path id="wkksV" d="M806.72 1745.51a.72.72 0 1 1 1.44 0 .72.72 0 0 1-1.44 0z"/><path id="wkksW" d="M808.89 1747.67a.72.72 0 1 1 1.44 0 .72.72 0 0 1-1.44 0z"/></defs><g><g transform="translate(-793 -1708)"><g><use xlink:href="#wkksa"/></g><g><use xlink:href="#wkksb"/></g><g><use xlink:href="#wkksc"/></g><g><use xlink:href="#wkksd"/></g><g><use xlink:href="#wkkse"/></g><g><use xlink:href="#wkksf"/></g><g><use xlink:href="#wkksg"/></g><g><use xlink:href="#wkksh"/></g><g><use xlink:href="#wkksi"/></g><g><use xlink:href="#wkksj"/></g><g><use xlink:href="#wkksk"/></g><g><use xlink:href="#wkksl"/></g><g><use xlink:href="#wkksm"/></g><g><use xlink:href="#wkksn"/></g><g><use xlink:href="#wkkso"/></g><g><use xlink:href="#wkksp"/></g><g><use xlink:href="#wkksq"/></g><g><use xlink:href="#wkksr"/></g><g><use xlink:href="#wkkss"/></g><g><use xlink:href="#wkkst"/></g><g><use xlink:href="#wkksu"/></g><g><use xlink:href="#wkksv"/></g><g><use xlink:href="#wkksw"/></g><g><use xlink:href="#wkksx"/></g><g><use xlink:href="#wkksy"/></g><g><use xlink:href="#wkksz"/></g><g><use xlink:href="#wkksA"/></g><g><use xlink:href="#wkksB"/></g><g><use xlink:href="#wkksC"/></g><g><use xlink:href="#wkksD"/></g><g><use xlink:href="#wkksE"/></g><g><use xlink:href="#wkksF"/></g><g><use xlink:href="#wkksG"/></g><g><use xlink:href="#wkksH"/></g><g><use xlink:href="#wkksI"/></g><g><use xlink:href="#wkksJ"/></g><g><use xlink:href="#wkksK"/></g><g><use xlink:href="#wkksL"/></g><g><use xlink:href="#wkksM"/></g><g><use xlink:href="#wkksN"/></g><g><use xlink:href="#wkksO"/></g><g><use xlink:href="#wkksP"/></g><g><use xlink:href="#wkksQ"/></g><g><use xlink:href="#wkksR"/></g><g><use xlink:href="#wkksS"/></g><g><use xlink:href="#wkksT"/></g><g><use xlink:href="#wkksU"/></g><g><use xlink:href="#wkksV"/></g><g><use xlink:href="#wkksW"/></g></g></g></svg>