<svg xmlns="http://www.w3.org/2000/svg" width="44" height="44" viewBox="0 0 44 44"><g><g><g><path d="M26.262 42.5l-.555-2.776 4.42-6.077c2.985.45 6.407 1.695 10.98 4.09.88.513 1.393 1.393 1.393 2.345V42.5zM1.466 40.082c0-.953.512-1.832 1.392-2.272 4.67-2.481 8.033-3.726 11.028-4.098l4.373 6.012-.555 2.776H1.466zm19.4-6.444l-1.976 4.445-.967-1.328-3.048-4.22a1.314 1.314 0 0 0-.076-.07l-.803-1.103.293-1.319c.1.107.2.211.302.314 1.72 1.76 3.865 2.987 6.275 3.281zM32.24 16.853v2.932a13.5 13.5 0 0 1-2.741 8.192l-.043.014-.22.22c-.369.492-.758.94-1.164 1.344-1.726 1.608-3.784 2.581-5.766 2.678a.826.826 0 0 0-.324-.065.701.701 0 0 0-.305.066c-1.214-.056-2.457-.44-3.634-1.099-1.193-.685-2.315-1.674-3.316-2.924l-.22-.22-.042-.014a13.5 13.5 0 0 1-2.742-8.192v-2.932zM10.26 14.655c0-1.95.49-3.79 1.379-5.397l5.069 1h.147c.22 0 .366-.073.586-.146.22-.146.293-.44.22-.66l-1.006-4.895c.53-.255 1.085-.474 1.665-.654v1.96c0 .439.293.732.733.732s.733-.293.733-.733V2.198c0-.366.293-.732.732-.732h2.931c.367 0 .733.293.733.732v3.664c0 .44.293.733.733.733s.732-.293.732-.733v-1.96c.6.187 1.173.414 1.719.68l-.986 4.797c0 .22.074.513.22.66.147.146.293.22.513.22h.147l5.036-1.06a11.113 11.113 0 0 1 1.412 5.456v.733H10.259v-.733zM15.9 8.573l-3.37-.66c.674-.877 1.537-1.693 2.47-2.389.08-.056.161-.11.243-.165zM28.724 5.36c.082.054.163.11.243.166.936.696 1.801 1.511 2.478 2.389l-3.38.66zm.953 24.684l.293 1.32-.749 1.027a.653.653 0 0 0-.13.145l-3.048 4.22-.967 1.328-1.976-4.445c2.361-.288 4.47-1.474 6.172-3.177l.056-.056.014-.014c.113-.113.225-.229.335-.348zm-10.01 10.259h4.626l.419 2.198h-5.484zm1.88-4.489l.445-.998 1.098 2.41.719 1.611h-3.585zm20.22.678c-4.373-2.319-7.728-3.62-10.714-4.118l.31-.425a.57.57 0 0 0 .146-.586l-.687-2.747c1.816-2.567 2.885-5.777 2.885-8.83v-2.932h2.198c.44 0 .733-.293.733-.732 0-.44-.293-.733-.733-.733h-.733v-.733c0-5.788-3.81-10.698-9.525-12.31v-.147A2.204 2.204 0 0 0 23.448 0h-2.93a2.204 2.204 0 0 0-2.199 2.198v.147c-5.716 1.612-9.526 6.521-9.526 12.31v.733H8.06c-.44 0-.732.293-.732.733s.293.732.732.732h2.199v2.931c0 3.054 1.068 6.264 2.885 8.831l-.687 2.747c0 .147 0 .44.146.586l.31.425c-2.987.499-6.341 1.8-10.715 4.118C.806 37.151 0 38.543 0 40.082v3.15c0 .44.293.734.733.734h42.5c.44 0 .733-.293.733-.733v-3.151c0-1.466-.88-2.858-2.199-3.59z"/></g></g></g></svg>