<svg xmlns="http://www.w3.org/2000/svg" xmlns:xlink="http://www.w3.org/1999/xlink" width="14" height="14" viewBox="0 0 14 14"><defs><path id="n4m9a" d="M1340.993 29.049a.677.677 0 0 1-.207.593l-1.971 1.957a1.11 1.11 0 0 1-.349.253c-.143.069-.284.113-.422.133l-.089.008c-.05.004-.113.007-.193.007-.187 0-.491-.032-.911-.096-.42-.065-.934-.223-1.541-.475-.608-.252-1.297-.63-2.068-1.135-.77-.504-1.59-1.196-2.46-2.076a16.248 16.248 0 0 1-1.72-1.957 13.948 13.948 0 0 1-1.096-1.728 9.31 9.31 0 0 1-.623-1.439c-.138-.43-.232-.8-.281-1.112a3.676 3.676 0 0 1-.06-.734c.01-.178.015-.277.015-.297.02-.138.065-.279.134-.422.069-.144.153-.26.252-.349l1.97-1.972a.653.653 0 0 1 .475-.208c.129 0 .242.037.341.111.099.074.183.166.252.275l1.586 3.01a.722.722 0 0 1 .074.52.925.925 0 0 1-.252.474l-.726.727a.247.247 0 0 0-.052.096.366.366 0 0 0-.022.111c.04.208.128.445.266.712.119.237.302.526.549.868.247.34.597.734 1.052 1.179.445.454.84.808 1.186 1.06.345.252.634.437.867.556.232.119.41.19.533.215l.185.037c.02 0 .052-.007.097-.022a.247.247 0 0 0 .096-.052l.845-.86a.908.908 0 0 1 .622-.237c.168 0 .302.03.4.089h.015l2.86 1.69c.208.129.332.292.371.49z"/></defs><g><g transform="translate(-1327 -18)"><use fill="#fff" xlink:href="#n4m9a"/></g></g></svg>