<svg xmlns="http://www.w3.org/2000/svg" xmlns:xlink="http://www.w3.org/1999/xlink" width="44" height="44" viewBox="0 0 44 44"><defs><path id="52rwa" d="M1218.867 1312.907h-2.027l-2.373-1.187v-6.427l2.373-1.186h2.027zm-10.267 8.8h-2.933v-8.8h2.933zm1.467 2.933h-5.867v-1.467h5.867zm-1.467 12.46a3.67 3.67 0 0 1-3.667 3.663h-12.466v-2.931h10.266a2.932 2.932 0 0 0 2.934-2.931v-8.794h2.933zm-7.818-25l-1.037-1.033 4.455-4.457v2.077zm12.218-.66h-7.333v-5.867H1213zm6.6-8.8h-2.933a.727.727 0 0 0-.328.077l-2.779 1.39h-8.627c-.016 0-.029.008-.045.009a.722.722 0 0 0-.192.038.769.769 0 0 0-.073.026.738.738 0 0 0-.207.139l-6.23 6.228a.733.733 0 0 0 0 1.039l2.076 2.068a.733.733 0 0 0 1.035 0l2.903-2.895v10.948h-.733a.733.733 0 0 0-.734.733v2.933c0 .405.329.734.734.734h.733v8.8c0 .81-.657 1.466-1.467 1.466h-11a.733.733 0 0 0-.733.734v4.4c0 .405.328.733.733.733h13.2a5.14 5.14 0 0 0 5.134-5.133v-11h.733a.733.733 0 0 0 .733-.734v-2.933a.733.733 0 0 0-.733-.733h-.733v-8.8h3.493l2.779 1.393c.102.05.214.074.328.073h2.933a.733.733 0 0 0 .733-.733v-10.267a.733.733 0 0 0-.733-.733z"/><path id="52rwb" d="M1224.73 1307.77h1.467v1.467h-1.467z"/><path id="52rwc" d="M1227.67 1307.77h1.467v1.467h-1.467z"/><path id="52rwd" d="M1230.6 1307.77h1.467v1.467h-1.467z"/><path id="52rwe" d="M1233.53 1307.77h1.467v1.467h-1.467z"/><path id="52rwf" d="M1221.59 1302.667l12.467-3.667.414 1.407-12.467 3.667z"/><path id="52rwg" d="M1221.63 1314.348l.336-1.428 12.467 2.933-.337 1.429z"/><path id="52rwh" d="M1224.73 1304.84h1.467v1.467h-1.467z"/><path id="52rwi" d="M1227.67 1304.84h1.467v1.467h-1.467z"/><path id="52rwj" d="M1230.6 1304.84h1.467v1.467h-1.467z"/><path id="52rwk" d="M1233.53 1304.84h1.467v1.467h-1.467z"/><path id="52rwl" d="M1224.73 1310.7h1.467v1.467h-1.467z"/><path id="52rwm" d="M1221.8 1307.77h1.467v1.467h-1.467z"/><path id="52rwn" d="M1221.8 1304.84h1.467v1.467h-1.467z"/><path id="52rwo" d="M1221.8 1310.7h1.467v1.467h-1.467z"/><path id="52rwp" d="M1227.67 1310.7h1.467v1.467h-1.467z"/><path id="52rwq" d="M1230.6 1310.7h1.467v1.467h-1.467z"/><path id="52rwr" d="M1233.53 1310.7h1.467v1.467h-1.467z"/></defs><g><g transform="translate(-1191 -1299)"><g><use xlink:href="#52rwa"/></g><g><use xlink:href="#52rwb"/></g><g><use xlink:href="#52rwc"/></g><g><use xlink:href="#52rwd"/></g><g><use xlink:href="#52rwe"/></g><g><use xlink:href="#52rwf"/></g><g><use xlink:href="#52rwg"/></g><g><use xlink:href="#52rwh"/></g><g><use xlink:href="#52rwi"/></g><g><use xlink:href="#52rwj"/></g><g><use xlink:href="#52rwk"/></g><g><use xlink:href="#52rwl"/></g><g><use xlink:href="#52rwm"/></g><g><use xlink:href="#52rwn"/></g><g><use xlink:href="#52rwo"/></g><g><use xlink:href="#52rwp"/></g><g><use xlink:href="#52rwq"/></g><g><use xlink:href="#52rwr"/></g></g></g></svg>