<svg xmlns="http://www.w3.org/2000/svg" width="54" height="54" viewBox="0 0 54 54"><g><g><g><path fill="#ffc62d" d="M4.48 5.49h11.651v1.793H4.48z"/></g><g><path fill="#ffc62d" d="M4.48 9.08h11.651v1.793H4.48z"/></g><g><path fill="#ffc62d" d="M4.48 12.66h8.066v1.793H4.48z"/></g><g><path fill="#ffc62d" d="M4.48 16.25h8.066v1.793H4.48z"/></g><g><path fill="#ffc62d" d="M0 52.1h53.776v1.793H0z"/></g><g><path fill="#ffc62d" d="M51.89 7.776L48.305.606a.896.896 0 0 0-1.202-.401l-7.17 3.585a.897.897 0 0 0 .8 1.604L45.928 2.8 44.51 6.845a47.829 47.829 0 0 1-41 31.805l.152 1.793a49.622 49.622 0 0 0 42.54-33.006l1.447-4.134 2.637 5.275a.897.897 0 0 0 1.604-.802z"/></g><g><path fill="#ffc62d" d="M9.866 48.508H5.38v-3.585h4.486zm.894-5.378H4.486a.896.896 0 0 0-.896.896v5.378c0 .495.401.896.896.896h6.274a.896.896 0 0 0 .896-.896v-5.378a.896.896 0 0 0-.896-.896z"/></g><g><path fill="#ffc62d" d="M19.714 48.516h-4.481v-6.283h4.48zm.896-8.076h-6.274a.896.896 0 0 0-.896.896v8.067c0 .495.401.896.896.896h6.274a.896.896 0 0 0 .896-.896v-8.067a.896.896 0 0 0-.896-.896z"/></g><g><path fill="#ffc62d" d="M29.574 48.508h-4.481V37.753h4.48zm.896-12.548h-6.274a.896.896 0 0 0-.896.896v12.548c0 .495.401.896.896.896h6.274a.896.896 0 0 0 .896-.896V36.856a.896.896 0 0 0-.896-.896z"/></g><g><path fill="#ffc62d" d="M39.434 48.512h-4.481v-17.03h4.48zm.896-18.822h-6.274a.896.896 0 0 0-.896.896v18.822c0 .495.401.896.896.896h6.274a.896.896 0 0 0 .896-.896V30.586a.896.896 0 0 0-.896-.896z"/></g><g><path fill="#ffc62d" d="M49.294 48.51h-4.481V18.932h4.48zm.896-31.37h-6.274a.896.896 0 0 0-.896.896v31.37c0 .495.401.896.896.896h6.274a.896.896 0 0 0 .896-.896v-31.37a.896.896 0 0 0-.896-.896z"/></g></g></g></svg>