<svg xmlns="http://www.w3.org/2000/svg" width="44" height="54" viewBox="0 0 44 54"><g><g><g><path fill="#ffc62d" d="M42.31 24.208a29.4 29.4 0 0 1-5.26 16.825 29.402 29.402 0 0 1-13.908 10.83l-1.195.447-1.196-.447a29.4 29.4 0 0 1-13.908-10.83 29.398 29.398 0 0 1-5.261-16.825V9.441l14.57-7.859H27.74l14.57 7.86zM28.14 0H15.753L0 8.497v15.711a30.97 30.97 0 0 0 5.543 17.726 30.97 30.97 0 0 0 14.653 11.41l1.75.656 1.751-.656a30.975 30.975 0 0 0 14.653-11.41 30.974 30.974 0 0 0 5.543-17.726V8.497z"/></g><g><path fill="#ffc62d" d="M37.374 24.212a24.48 24.48 0 0 1-4.381 14.01 24.516 24.516 0 0 1-10.946 8.77l-.1.04-.099-.04a24.516 24.516 0 0 1-10.945-8.77 24.486 24.486 0 0 1-4.381-14.01v-11.82L17.4 6.524h9.094l10.879 5.868zM26.64 2.71l-.563 2.232h-8.26l-.565-2.232-1.533.387.563 2.232L4.94 11.448v12.764c0 5.354 1.612 10.51 4.663 14.911a26.096 26.096 0 0 0 11.553 9.296v2.63h1.582v-2.63a26.093 26.093 0 0 0 11.554-9.295 26.059 26.059 0 0 0 4.663-14.912V11.448L27.612 5.329l.563-2.232z"/></g><g><path fill="#ffc62d" d="M28.947 17.367l2.894 2.767-12.71 13.291-7.078-8.774 3.117-2.514 4.217 5.228zM15.41 19.912l-5.579 4.5 9.2 11.408 15.048-15.736-5.181-4.954-9.409 9.84z"/></g><g><path fill="#ffc62d" d="M41.253 15.98h-1.574v1.582h1.574zm0 2.637h-1.574V20.2h1.574zM36.18 40.433a28.35 28.35 0 0 0 5.073-16.223v-2.956h-1.582v2.956c0 5.502-1.657 10.8-4.791 15.322z"/></g><g><path fill="#ffc62d" d="M36.32 24.21h-1.583c0 .508-.017 1.022-.052 1.526l1.578.11c.037-.542.056-1.092.056-1.636zm-.157 2.722l-1.571-.182a22.033 22.033 0 0 1-.228 1.51l1.555.29c.1-.533.182-1.077.244-1.618zm-4.037 10.682a23.38 23.38 0 0 0 3.568-7.996l-1.54-.362a21.815 21.815 0 0 1-3.328 7.457 21.919 21.919 0 0 1-9.196 7.582l.637 1.448a23.503 23.503 0 0 0 9.86-8.129z"/></g><g><path fill="#ffc62d" d="M29.785 20.733L28.65 19.64l-1.085 1.144 1.135 1.093zm-1.825 1.901l-1.135-1.088-1.084 1.138 1.134 1.089zm-1.814 1.913l-1.143-1.095L21.2 27.44l1.143 1.096z"/></g></g></g></svg>