<svg xmlns="http://www.w3.org/2000/svg" width="56" height="54" viewBox="0 0 56 54"><g><g><g><path fill="#ffc62d" d="M4.495 48.563h23.378v-1.799H4.495a2.697 2.697 0 0 1-2.697-2.697V4.505a2.697 2.697 0 0 1 2.697-2.697h39.562a2.697 2.697 0 0 1 2.697 2.697v20.68h1.799V4.505A4.5 4.5 0 0 0 44.057.01H4.495A4.501 4.501 0 0 0 0 4.505v39.562a4.502 4.502 0 0 0 4.495 4.496z"/></g><g><path fill="#ffc62d" d="M3.6 3.6h1.798v1.798H3.6z"/></g><g><path fill="#ffc62d" d="M7.19 3.6h1.799v1.798H7.19z"/></g><g><path fill="#ffc62d" d="M10.79 3.6h1.798v1.798H10.79z"/></g><g><path fill="#ffc62d" d="M3.6 7.2h41.36v1.799H3.6z"/></g><g><path fill="#ffc62d" d="M8.092 19.798a2.7 2.7 0 0 1-2.697-2.703 2.7 2.7 0 0 1 2.697-2.702c.401.002.796.094 1.156.27l-1.791 1.795 1.27 1.273 1.793-1.793c.176.36.268.756.27 1.157a2.7 2.7 0 0 1-2.698 2.703zm4.76-8.738l-2.284 2.284a4.51 4.51 0 1 0 1.271 1.271l2.284-2.284z"/></g><g><path fill="#ffc62d" d="M15.29 14.39h15.285v1.798H15.29z"/></g><g><path fill="#ffc62d" d="M15.29 17.99h6.294v1.798H15.29z"/></g><g><path fill="#ffc62d" d="M23.38 17.99h12.587v1.798H23.38z"/></g><g><path fill="#ffc62d" d="M32.37 14.39h8.991v1.798H32.37z"/></g><g><path fill="#ffc62d" d="M8.092 30.588a2.7 2.7 0 0 1-2.697-2.703 2.7 2.7 0 0 1 2.697-2.702c.401.001.796.094 1.156.27l-1.791 1.795 1.27 1.273 1.793-1.793c.176.36.268.756.27 1.157a2.7 2.7 0 0 1-2.698 2.703zm4.76-8.738l-2.284 2.284a4.51 4.51 0 1 0 1.271 1.271l2.284-2.284z"/></g><g><path fill="#ffc62d" d="M15.29 25.18h15.285v1.798H15.29z"/></g><g><path fill="#ffc62d" d="M15.29 28.78h6.294v1.798H15.29z"/></g><g><path fill="#ffc62d" d="M23.38 28.78h7.193v1.798H23.38z"/></g><g><path fill="#ffc62d" d="M32.37 25.18h3.596v1.798H32.37z"/></g><g><path fill="#ffc62d" d="M8.092 41.378a2.7 2.7 0 0 1-2.697-2.703 2.7 2.7 0 0 1 2.697-2.702c.401.001.796.094 1.156.27l-1.791 1.795 1.27 1.273 1.793-1.793c.176.36.268.756.27 1.157a2.7 2.7 0 0 1-2.698 2.703zm4.76-8.738l-2.284 2.284a4.51 4.51 0 1 0 1.271 1.271l2.284-2.284z"/></g><g><path fill="#ffc62d" d="M15.29 35.97h11.688v1.799H15.29z"/></g><g><path fill="#ffc62d" d="M15.29 39.57h6.294v1.798H15.29z"/></g><g><path fill="#ffc62d" d="M23.38 39.57h3.596v1.798H23.38z"/></g><g><path fill="#ffc62d" d="M42.257 28.778c6.455 0 11.688 5.233 11.688 11.689 0 6.455-5.233 11.688-11.688 11.688-6.455 0-11.688-5.233-11.688-11.688.007-6.452 5.236-11.681 11.688-11.689zm0 25.176c7.449 0 13.486-6.039 13.486-13.487 0-7.449-6.037-13.487-13.486-13.487-7.449 0-13.487 6.038-13.487 13.487.009 7.445 6.042 13.478 13.487 13.487z"/></g><g><path fill="#ffc62d" d="M36.77 40.967l-1.61.803 1.798 3.597a.898.898 0 0 0 1.436.234l10.79-10.79-1.272-1.271-9.907 9.907z"/></g></g></g></svg>