<svg xmlns="http://www.w3.org/2000/svg" width="54" height="54" viewBox="0 0 54 54"><g><g><path fill="#ffc62d" d="M42.196 29.548a2.287 2.287 0 1 0-.001 4.573 2.287 2.287 0 0 0 .001-4.573zm9.28 6.735H41.31a4.314 4.314 0 0 1-4.31-4.31v-.446a4.314 4.314 0 0 1 4.31-4.31h10.166zm-2.58 12.526a3.113 3.113 0 0 1-3.108 3.11H5.29a3.113 3.113 0 0 1-3.108-3.11V13.233a3.113 3.113 0 0 1 3.108-3.109h11.666l-4.97 2.764H5.938a1.036 1.036 0 1 0 0 2.073h42.958v10.19H41.32a6.391 6.391 0 0 0-6.383 6.383v.445a6.391 6.391 0 0 0 6.383 6.383h7.577zM35.462 2.202a1.056 1.056 0 0 1 1.408.402l5.719 10.282h-26.34zm10.317 7.922c1.595 0 2.898 1.217 3.073 2.773H44.96l-1.535-2.773zm7.77 15.022h-2.59V13.232a5.186 5.186 0 0 0-5.18-5.18H42.27L38.68 1.6A3.108 3.108 0 0 0 34.454.392l-13.776 7.66H5.29a5.186 5.186 0 0 0-5.18 5.18V48.8a5.186 5.186 0 0 0 5.18 5.18h40.489a5.186 5.186 0 0 0 5.18-5.18V38.355h2.59z"/></g></g></svg>