<svg xmlns="http://www.w3.org/2000/svg" width="16" height="17" viewBox="0 0 16 17"><g><g><path d="M4.196 16.88a4.065 4.065 0 0 1-2.928-1.236A4.252 4.252 0 0 1 .06 12.65a4.25 4.25 0 0 1 1.208-2.993L9.831.903c1.225-1.252 3.13-1.196 4.428.132 1.3 1.328 1.355 3.274.13 4.527l-8.044 8.225a1.91 1.91 0 0 1-2.741 0 2.016 2.016 0 0 1 0-2.803l5.449-5.571a.463.463 0 0 1 .665 0 .489.489 0 0 1 0 .68l-5.45 5.571a1.037 1.037 0 0 0 0 1.442.984.984 0 0 0 1.411 0l8.045-8.224c.845-.865.79-2.226-.13-3.167-.92-.94-2.251-.997-3.097-.132l-8.563 8.755A3.285 3.285 0 0 0 1 12.65c0 .877.331 1.698.933 2.313a3.141 3.141 0 0 0 2.262.954c.857 0 1.66-.339 2.262-.954l8.563-8.754a.463.463 0 0 1 .665 0 .489.489 0 0 1 0 .68l-8.562 8.755a4.066 4.066 0 0 1-2.928 1.235z"/></g></g></svg>